<svg height="1024" viewBox="0 0 1024 1024" width="1024" xmlns="http://www.w3.org/2000/svg" xmlns:xlink="http://www.w3.org/1999/xlink"><linearGradient id="a" gradientUnits="userSpaceOnUse" x1="414.91757" x2="416.78503" y1="240.6683" y2="241.73184"><stop offset="0" stop-color="#030202" stop-opacity=".960784"/><stop offset="1"/></linearGradient><linearGradient id="b" gradientUnits="userSpaceOnUse" x1="394.66434" x2="393.33939" y1="284.995" y2="241.47444"><stop offset="0" stop-color="#de6a23"/><stop offset="1" stop-color="#fd863a"/></linearGradient><linearGradient id="c" gradientUnits="userSpaceOnUse" x1="530.07574" x2="526.99121" y1="734.30328" y2="738.60339"><stop offset="0" stop-color="#f1eff1"/><stop offset="1" stop-color="#eae7d8"/></linearGradient><path d="m431.796 142.356c20.132-12.701 38.984-26.724 60.269-37.847 6.828-3.568 12.779-11.6185 20.618-14.0793 2.581-.8103 3.604 4.4309 6.316 5.0896 11.267 6.3897 22.475 12.9837 33.698 19.4577l-1.587 1.636c1.767 2.121 7.411 4.691 10.076 5.83 11.355 4.85 21.863 11.101 32.497 17.311 5.39 3.147 11.5 6.041 16.665 9.446l-.809.84c-9.966-4.282-58.201-32.931-64.144-31.645.566 2.704 4.894 5.262 7.287 7.626l.354.353c4.578 3.39 19.654 9.388 25.512 12.261 7.853 4.828 9.173 5.943 18.435 8.738 3.008.908 11.569 8.715 15.573 10.691.474-.531.934-.962 1.488-1.42.826.811 2.003 2.689 2.79 2.553 3.967-.689 3.343-1.468 6.996 1.187.721-.795.491-.322.649-1.436.043-.941.058-.905-.047-1.857l.551-.514-1.354-1.249c1.788-.258 6.809 2.497 7.922 3.92l-.221.597c-1.129-.372-2.053-.681-3.208-.978 6.631 14.06-7.385 63.097-2.231 72.254l.33.057 1.354-1.49c-.083 2.745.28 4.577 1.176 7.146 2.901 8.317 4.311 48.463 3.423 58.42-1.018 1.202-1.682 1.564-3.463 1.904-3.223 1.08-4.726 1.851-7.508 3.875-12.157 8.379-42.396 21.749-49.708 32.649-9.95 14.835-18.494 38.594-26.941 54.989-2.331 4.82 9.919 29.94 8.45 32.714-.209 4.253 1.464 14.889.665 17.884-2.699 10.122-2.181 16.598-1.471 26.965.121 1.768-1.784 9.611-2.199 11.91-1.28 7.406-2.361 14.845-3.239 22.31-.399-5.019 1.851-23.87 2.349-30.185.037-1.542.227-2.732-.382-4.127-1.266.712-1.535 1.822-2.388 3.325-.803 8.607-3.047 16.549-3.019 25.25.009 2.788-.305 6.205-.506 9.015-1.956 24.742-2.754 49.562-2.392 74.378.071 2.032.2 4.258.193 6.273 1.383 1.485 2.763 2.946 4.096 4.478 8.441 6.925 15.283 15.025 24.964 20.929 3.699 2.255 5.501 8.775 11.141 10.022 2.942-1.929 6.695 1.249 9.046 1.432 6.162.479 11.85-1.76 18.608-2.117 6.803-.166 14.802.738 21.632 1.452 2.703 3.327 5.348 7.428 5.678 11.814 2.405 3.822 9.095 11.127 12.938 13.303l.551-.094c1.329-.238 1.213-.517 2.047.192 2.63 2.235 6.308 7.574 7.949 10.498 1.779.357 6.401-.097 8.488-.111 10.246-.07 20.016-1.073 30.194-2.384 4.185-.539 15.663.562 19.138-1.632 3.851-2.431 9.08-8.661 12.911-11.693 6.986-6.027 13.861-11.955 20.648-18.187 3.774-.286 7.149-.312 10.915.295 11.342 1.825 23.367-1.846 34.243 2.353-10.01 4.992-14.486 1.801-21.243 5.374 1.504.59 2.969 1.111 4.389 1.879 4.493.43 12.891.906 16.474 3.318-2.887-.624-5.262-1.367-8.161-.858l-.58.097c-7.146 1.241-18.798 1.857-25.824.083-.783-.198-1.421-.469-2.256.186-7.248 5.68-23.189 19.969-28.316 26.679l.502.434c11.683 9.929 15.604 9.046 26.085 23.192-2.381-.174-4.941-.702-7.31-1.119 4.341 4.795 7.803 4.69 10.674 7.402.996.077.615.071 1.637-.362 4.453-.551 14.645.68 17.522-2.237 3.16 2.292 5.687 2.998 9.47 1.812 4.432-1.39 9.103-1.474 13.289-3.332l.411.114c-2.981 4.188-27.497 10.89-32.774 11.585-7.578.998-16.427 2.6-22.681-2.919-1.679-1.796-7.255-5.798-9.429-7.459-5.347-4.084-10.603-8.284-15.766-12.598-1.696-.662-6.438-4.616-7.991-5.89-5.944.556-16.995.247-23.184.241l-40.494.088c-10.26-7.754-23.034-23.728-31.14-33.771-12.836-2.121-30.482 1.65-41.145.29 4.213 4.199 8.243 9.134 12.535 13.512 2.568.913 8.488 3.323 9.747 5.619 1.357 2.046 2.758 4.064 4.2 6.052 1.978 1.898 13.258 11.771 14.042 13.048 3.328 2.904 7.73 8.096 11.032 11.476 2.359 2.453.347 1.191 1.619 4.573 7.611 5.9 9.953 8.269 16.18 15.624 10.189-.029 21.708-.298 31.796-.05 8.14 9.982 28.63 31.811 38.306 39.879 3.618-.557 6.747-1.208 10.328-1.991 3.499-.821 11.159.525 16.071.203 8.819-.815 10.098 11.571 14.559 12.659l-.259-1.625c1.984.52 8.948 7.883 10.867 9.819.381 2.101.053 2.987 2.238 4.101 7.87 4.01 10.814 5.525 15.01 14.03-2.21-.814-6.261-2.047-7.656-3.82-4.01-1.291-5.563-3.436-8.661-6.429.821 1.831 2.247 3.842 3.366 5.552l-1.158.504c.137 1.19-.013 1.294.505 2.249 1.93 4.496 4.26 7.142 7.332 10.887-9.278-5.888-16.425-13.537-25.052-20.196-5.543-4.279-9.242-8.083-13.92-13.211-7.602-.286-15.914.663-23.633 1.125-2.818-.431-4.968.367-8.004-.819-.837-1.645-4.436-5.807-6.112-8.663-1.809-.369-2.456-1.018-3.76.436-2.98-5.009-6.533-9.653-10.588-13.84-4.023-3.235-11.835-10.885-13.075-15.851-6.836.258-30.17.536-35.877-.945-4.602-4.119-7.425-5.822-9.856-11.514-3.386-2.131-7.07-6.642-10.31-9.341-4.827-4.021-10.068-7.724-14.819-11.772-5.331-4.542-10.168-10.528-15.304-15.287-4.485-4.155-9.338-8.039-13.887-12.164-6.644-6.131-13.136-12.425-19.469-18.877-4.172-4.21-13.361-11.012-15.774-14.605l-.778-.15c.775 2.516 7.007 11.29 8.729 14.23 1.176 2.008 1.794 4.18 2.798 6.198 2.144 1.319 6.23 3.449 6.506 5.894 1.07 9.466.533 21.033.745 30.687 5.882 4.573 15.424 14.195 21.007 19.724 7.475 7.401 14.931 13.95 22.416 21.109.367 8.765.001 15.102-.645 23.858 4.712 5.081 9.205 9.652 14.779 13.812 2.317 1.73 6.055 4.244 7.337 6.748 1.7 1.676 3.13 3.054 4.68 4.887 3.879 2.485 8.61 7.886 11.277 11.661l-4.325 1.361c-2.023.329-2.51-.003-3.407 1.19l.099 1.321c2.172 2.211 3.937 4.788 5.214 7.613l-.214.583c-1.16-.637-.947-.453-1.933-1.319-6.182-2.998-12.701-8.984-17.805-13.582-1.874-1.493-3.942-3.517-5.726-5.173-4.977-3.927-11.052-9.742-15.667-14.115-1.08-.679-4.999-5.24-6.026-6.436-1.535-1.513-3.062-3.035-4.58-4.565.018-4.281.156-5.573.94-9.804.112-2.423.289-6.032.057-8.337-.879-8.708-11.551-15.289-18.363-20.516-.375-.179-1.759-1.156-2.19-1.447-3.917-3.091-7.032-6.802-10.797-10.095-3.743-3.274-7.502-5.815-10.986-9.414-1.288-11.587-1.001-21.903-1.57-33.453-3.875-3.361-7.99-6.71-11.487-10.428-2.365-2.513-4.286-5.234-6.668-7.793l-.562.154c-1.031 14.359.086 32.011-.453 46.598-.198 5.362.347 13.409-.375 18.503.027 4.155-.019 8.31-.137 12.464 15.325 15.996 32.058 28.006 46.539 42.695.394 3.619.831 7.288.841 10.926.02 7.313-1.06 16.384 1.387 23.488 6.946 5.563 11.732 10.729 18.142 16.576 8.729 7.964 16.01 12.001 22.735 22.377l-1.298 6.669c.524 1.214 2.196 4.963 2.32 5.984 1.188 6.997.877 24.201-1.082 31.094-1.483 5.219.233 13.794-3.951 16.326-5.952-1.706-3.773-17.988-5.503-23.797l-.703.998c-.466-.596-.924-1.496-1.31-2.176-.359 2.327-.745 4.65-1.159 6.968-.199-1.642-.812-5.895-1.141-7.542-1.446-7.234 2.359-23.674-1.078-29.4-1.801-1.232-9.659-10.21-11.951-12.389-4.278-4.064-8.251-7.286-12.808-11.046-6.159 4.371-19.578 16.651-25.653 22.145-6.046 4.911-6.87 9.721-7.356 17.221l.185 2.092-1.475-.177c-.562 5.707-1.512 11.649-2.065 17.252-.897 9.082.472 10.966-4.031 19.245-.108-6.224.659-21.333.117-26.252-.103-.11-.211-.214-.309-.328-3.346-3.908-1.472-27.046-1.125-33.126 3.172-3.853 11.348-10.828 15.248-14.217 1.2-1.804 9.672-8.368 12.083-10.92-.209-1.744-.405-3.49-.59-5.238-.136-5.003-.054-10.01.247-15.006-.132-1.481-.376-2.363-.693-3.803-.838-3.224-.604-9.743-.495-13.079-.287-1.609-.405-3.711-.552-5.374-2.348-1.662-7.65-4.605-9.467-6.59-5.764-6.296-12.895-11.143-18.956-16.828-2.505-1.367-10.635-9.02-13.116-11.289l-2.202-.846c-2.055-1.254-1.342-1.218-3.423-1.146-2.068 1.081-3.18 2.577-4.773 4.308l-2.398-1.897-3.571 3.183c-10.034 9.209-23.613 22.995-34.35 30.377l-1.093.146c.067 4.781 1.079 14.033.605 18.001l-.237 1.418-.106.376c-2.222 1.297-2.266 1.444-2.844 4.113l-3.136.1-1.372 1.447c-.679-9.487-.644-19.575-.419-29.094 3.934-5.413 12.015-12.281 17.115-16.899 9.396-8.505 19.069-16.662 27.964-25.741 3.586-3.661 3.061-3.216 3.011-8.561-.312-5.693.519-10.251.394-15.777-2.704-5.778-1.113-33.253-1.337-40.261-.148-4.655-1.903-8.758-1.809-14.04-4.633 4.633-13.981 15.556-15.146 21.839-.98 5.284-1.233 12.643-1.774 18.187.029 3-.118 3.509-.952 6.412-1.867 2.459-3.916 5.001-6.371 6.905-.053-1.399-.157-1.373-.805-2.65-1.668 1.605-11.046 9.969-11.856 11.316l-1.574-.821 2.945-4.057-.814-.403-1.428-2.009c-3.234.857-6.362 1.96-9.678 1.45 4.19-3.683 9.615-8.701 13.177-12.924-.507-6.051-.164-24.74.147-31.039 1.474-4.927 9.633-8.196 11.503-17.175l-.651-.622c-6.247 3.325-18.117 16.605-24.404 21.905-8.569 7.223-17.618 14.683-26.054 22.01-1.852 1.736-12.511 12.239-13.686 13.133-3.753 4.035-25.068 26.277-28.546 26.982l-.218.046c-6.614.442-9.684 4.533-15.796.498l-.704-.457c-.144-.099-.289-.198-.434-.297-3.434.918-7.911 2.505-11.289 1.573.462-.917.404-.568 1.72-1.215-1.838-2.252-4.675.674-6.012 2.157-7.847 8.707-17.657 17.168-25.126 26.084 1.556 7.357.628 15.712.671 23.285.033 5.954.296 12.006.274 17.911.152 2.784.36 4.88-1.607 7.001-4.367 4.705-11.6 13.735-17.619 15.511-3.635 4.706-10.118 13.453-15.513 15.748-2.913 2.11-6.717 5.794-9.64 8.3 4.893-7.178 25.021-30.857 31.938-36.359l1.09-2.905c-4.958 3.397-27.84 26.446-29.938 26.595l-.38-.9c.631-4.478 17.44-22.343 21.398-26.218 1.565-1.582 3.348-3.157 4.998-4.67.068-7.741-.02-22.072-.762-29.222-.06-2.715-.072-5.432-.037-8.148-.415-2.403-.495-7.797-.584-10.385 1.968-10.327 20.588-24.662 28.222-32.497 1.446-1.485 3.726-3.34 5.419-4.547l7.047-.216c7.368-.789 11.397.527 18.275.774 2.987-.673 4.076-.574 7.054-.501 5.857-6.506 14.151-13.983 20.442-20.479 15.84-16.355 32.547-32.603 47.986-49.299-10.035.582-20.968.348-31.409.157-12.089-.222-9.891 5.008-17.336 10.805-7.753 6.038-18.635 17.262-26.922 21.517-2.019 1.038-13.548.68-16.346.65-7.468.128-14.938.127-22.406-.002-3.955.177-8.355-.905-13.313-.814-2.652 1.017-7.349 1.209-10.316 1.437-3.03 1.53-8.606 8.925-10.955 9.366-11.089 4.019-16.214 21.527-27.153 16.969-.603-.303-1.705-.654-2.38-.631-13.391.445-26.838-.011-40.242-.347 7.199-2.617 18.98-4.386 26.639-3.846l.866-1.466c-2.092-2.524-20.259-2.172-26.615-4.009 2.863-1.024 21.142-.587 24.975-.707 4.667-.146 10.62-1.021 15.341-1.471 8.449-7.04 15.182-17.802 22.679-22.635 1.596-.545 3.992-1.797 5.58-2.565 2.342.771 2.327 2.398 5.088 3.308 1.691-.129 2.944-.914 4.275-1.983 3.074-3.951.545-5.779 5.636-6.83 17.15-.088 34.365.472 51.828.302 5.984-6.441 12.614-12.424 19.06-18.43 6.15-5.73 13.901-13.468 20.729-18.334 10.493-.282 20.993-.184 31.478.296l8.829-.731c5.306-2.778 18.111-15.172 23.278-19.903 5.713-5.193 11.55-10.247 17.507-15.158-3.912-26.649-2.441-54.94-5.623-81.73-.518-3.576-2.369-7.927-2.49-11.488-.578-17.016-1.602-33.66-3.894-50.545-.581-4.278-3.354-11.657-2.594-15.1 1.61-7.302 5.527-15.781 9.113-22.367-.745-3.907-.833-8.171-1.539-11.798-.83-4.26-3.357-10.055-4.965-14.126-6.093-15.429-13.718-29.259-24.067-42.271-2.267-2.85-5.19-7.154-8.133-9.148 2.193.155 4.93 1.789 6.673 3.09.791 1.995.533 2.444 1.979 3.237 4.13 5.187 5.76 9.581 10.858 14.36-1.038-2.239-1.499-3.241-2.886-5.26l-.092-1.334c1.127-.874.517-.754 1.803-.632.922.877 1.383 1.247 2.128 2.286l.516.805c1.046-.352.579-.184 1.446-1.331l.405.423.271.034c1.831-1.448 1.274-1.478 3.132-1.489 1.246.982 2.261 2.034 3.77 2.303l-.099.479-.623.637c.942 2.259 4.911 10.457 6.347 11.793l.057 1.007c.503 2.027 2.387 5.144 3.639 6.832.837.265 1.308.428 2.167.61l-.008.886-1.125.508c-.009 1.649.675 2.381 1.891 3.77l-.314 1.461c.946 1.691 2.055 3.831 3.171 5.369l.429 1.022c1.07 2.131 2.105 4.279 3.105 6.444l.516 1.028c1.258 2.441 2.144 4.684 4.165 6.482l.333.465-.11.196c.714 1.819 1.806 4.536 2.231 6.434l-1.195 1.467-2.558 4.694-.149.663-2.586 7.984c3.763.068 8.043.003 11.693.689-.988.574-10.263.392-11.961.385l-2.495 5.399c2.21.128 5.936.231 8 .597 3.577.162 4.665.145 8.135 1.13-1.298.377-10.415.04-12.803.152-1.588.402-4.634.677-4.976 2.716 4.017 1.906 49.591 1.747 55.54.835l.422-1.015c-3.161-4.49-20.26-1.021-23.289-2.714l.218-.425c6.444-1.021 15.744-.299 22.195.771-.9-3.196-1.823-4.979-3.254-7.97l-4.84.057-2.717-.904 7.114-.592c-.58-2.319-1.106-4.651-1.577-6.995l-.093-.792c-.533-1.517-.939-2.989-1.379-4.532l-.805-.924.681-.365c.333-1.413-.074-5.239-.84-6.559l-.065-.445-2.276-.584c.872-.058 1.662-.168 2.528-.274 1.328-1.323 1.839-3.857 2.879-6.049.303-.378.474-.918.679-1.399.637-2.911 1.28-3.974 2.599-6.57l.308-.431c.615-1.832 2.018-4.649 2.863-6.494l.349-.445c.855-1.572 2.455-4.007 2.438-5.65l-.009-.625c2.434-1.508 5.334-9.011 5.59-12.001.051-.592-.669-.903-1.124-1.25-8.141-1.484-15.151 2.896-21.96 6.372-3.823 1.951-7.443 3.235-11.135 5.609l.228.391c1.665-.421 4.905.382 7.307.486l-.433 1.025c-2.693-.069-5.482-.175-8.168-.192-1.296 1.431-2.015 2.589-3.838 3.06l-.55-.152c-4.933-4.401-24.698-18.837-30.688-19.47l-1.448-.101-.482-.922c1.562-2.759-13.088-9.846-15.726-10.685l.174-.217-.072-.304c-.797 1.088-.29.839-1.368 1.098-1.532-2.606-1.258-2.389-4.253-2.819-4.874-3.197-18.345-10.18-24.001-13.252 2.104 1.918 4.179 3.867 6.224 5.846-6.838-3.956-14.037-7.538-20.803-11.619-6.926-4.178-13.258-8.64-20.477-12.394.354 2.389.671 3.059.269 5.479-2.032-6.577-.563-3.274-5.669-6.638-.051-.986-.083-1.544-.243-2.515-.878.535-1.749 1.079-2.614 1.633l-.821-.321c-.702-1.817-.778-1.011-.19-2.513 1.397-.353 1.82-.351 3.015-1.163.417-1.87-.171-4.689-.449-6.685-3.109-15.635-3.428-38.511-2.44-54.462.051-1.925.017-1.869.673-3.663 1.189-1.242 1.818-1.179 3.519-1.484.977-2.924.07-42.268-.089-48.342-.41-15.625-4.367-13.355 10.786-21.668 6.161-7.548 15.937-13.936 24.82-17.788 1.424.889 2.837 2.077 4.166 3.133zm-9.077 79.851c-.763-2.01-2.225-3.629-3.179-5.643-3.401-7.187-6.864-13.484-10.977-20.237-3.491-1.595-7.741-10.11-9.909-13.848-.404-1.376-.566-2.714-1.455-3.638-.318 6.574-1.253 13.23-1.45 19.572-.138 4.424 2.905 12.602 3.614 17.44.892 6.092.657 13.739 1.471 19.569.092 2.798.155 4.916-.016 7.743.208 12.025.226 23.083.152 35.095 3.341-7.552 7.271-14.248 10.951-21.549 4.193-8.322 7.779-16.438 13.098-24.187.688-1.003.93-2.322.888-3.539-1.989.534-2.117.583-4.153.67-2.22-6.33-6.89-15.311-9.899-21.407 2.222 2.668 9.336 12.617 10.864 13.959zm120.984-89.35c2.23 3.333 9.64 13.232 9.733 16.058-.469-.093-.938-.186-1.407-.279 1.207 2.741 4.156 6.033 5.944 9.007 2.105-.294 17.2.237 18.924.691 4.661.184 14.893.316 19.073.872 3.21.904 6.661.993 10.003 1.233-8.741-7.809-24.805-9.365-33.833-19.864-4.267-4.161-8.882-5.334-13.804-8.485-1.968-1.26-4.847-4.131-6.588-5.821-1.578-1.136-2.051-1.271-3.449-2.136-6.086-3.763-10.948-7.543-17.292-11.147 4.478 8.531 8.277 12.559 12.696 19.871zm-.383.881c-3.881-5.341-7.459-11.08-11.07-16.609-3.992-6.112-5.881-8.397-12.73-11.033 2.903 6.539 8.969 14.886 13.259 20.864 8.359 6.243 10.563 12.819 17.027 19.078.054-2.522-4.87-9.794-6.486-12.3zm22.579 30.787c3.678-.345 6.528-.482 10.225-.554 5.078-2.197 5.744-2.243 11.239-1.908 3.682.597 8.085-.02 11.809-.42-2.769-.467-5.261-.883-8.057-1.19l-3.125-.201-5.958-.332c-7.847.2-15.698-.046-23.547-.225.879 1.833 1.442 3.665 3.179 4.576 1.591.16 2.634.218 4.235.254zm-134.398-14.595c1.862 4.788 2.074 6.493 2.04 11.695 8.229-.301 22.191-.929 30.163-.258.224-.621.458-1.239.702-1.852 3.231-8.262 7.81-19.268 16.174-22.918 3.364-1.054 4.598-.949 7.239-3.471l.885-1.621c3.294-5.474 6.628-10.915 9.703-16.515-4.041 4.225-7.556 10.287-12.209 15.329.558-4.591 5.101-13.089 7.617-16.962-8.345 2.562-29.108 15.748-37.705 20.718-2.198 1.271-6.469 6.247-10.138 8.335l1.348-1.775-.217-.5c-2.454 1.012-13.993 8.074-15.602 9.795zm124.339 152.261c-.863 1.58-1.926 3.976-3.294 4.983-.13-1.535 1.189-3.777 1.841-5.351-4.758 6.195-10.469 15.223-14.83 20.47-2.618 3.376-11.643 15.602-14.327 17.828-1.448 3.322-3.183 5.72-4.71 8.832 9.556-7.033 24.636-15.21 35.023-21.516l.188.718c-1.474 1.089-2.141 1.35-2.713 3.083.168.427.333.948.568 1.316-1.065.728-.775.392-1.501 1.402l.439.609c3.488.102 17.073-8.561 18.357-11.568.306-.615.433-1.68.566-2.372.607-.962 13.605-9.046 15.935-10.538 4.566-2.62 12.115-7.065 15.848-10.401-1.131-.151-2.078.479-3.323.972l-2.288-.798c-12.756 1.352-25.678 1.591-38.472 1.398-1.067-.016-2.43.29-3.307.933zm-89.372 27.663c-1.792-.083-3.731-.712-5.513-1.165l-.777.302c1.686 2.685 19.404 10.414 23.503 12.089-3.282-2.875-9.961-6.487-13.932-8.739l.827-1.005c3.215 1.47 7.651 3.48 10.5 5.405 7.658 5.178 11.889 9.488 20.495 13.083-5.086-7.708-8.266-10.307-15.321-16.563-2.286-2.091-8.946-5.236-12.135-7.003-1.715-3.271-2.765-4.918-2.552-8.685.933-1.533.982-1.653 1.572-3.353 2.875 3.687 4.516 6.067 9.253 7.352-2.741-4.216-8.243-15.603-11.893-18.551l-4.158-.008c-5.111.025-10.23.247-15.334.202-3.229-.028-5.654.338-8.127-1.835 3.928 1.285 8.694.584 12.559-.683-5.205-.69-8.236-1.425-13.378-.189-8.031-3.757-16.418-2.335-24.971-1.924 11.541 6.839 22.89 13.549 34.043 21.017 4.921 3.296 10.669 6.666 15.339 10.253zm-39.285-90.364c-2.656 3.917-16.067 26.738-15.857 30.139 2.843-4.684 16.182-25.829 15.857-30.139zm189.682-57.939-1.708-.189c-2.816 5.076-7.488 13.459-8.919 18.987 3.684-5.945 7.484-13.889 10.627-18.798zm-159.433 110.824c-4.096-1.371-4.52-.828-8.556.885 2.529 1.766 9.003 2.75 11.164.693-.624-1.258-.793-.937-2.608-1.578zm86.658 51.358c5.016-1.405 9.039-1.709 9.624-7.655l-.922.002-.872-1.29c-9.629 4.828-20.341 11.574-29.807 17.142-2.118 1.671-8.781 5.765-9.918 7.333 1.714-.182 21.538-12.153 25.205-14.07l.257.245c1.649.183 2.285-1.057 4.851-1.744l.974.801zm-130.978-52.481c-4.091-.792-5.217-.859-9.234-.713.356 1.803-.108 1.148 1.321 2.113 2.245.248 3.039.049 5.322-.255.944-.267 1.703-.708 2.591-1.145zm135.115 53.866c-1.641.307-3.098.316-4.262 1.246 1.297.61 1.249.58 2.677.767 2.545-.423 1.847.031 3.677-1.45l-.258-.681c-.345.02-1.533.068-1.834.118zm62.051-162.518c-6.408 2.524-10.651 15.37-13.764 21.433-.681 1.327-3.619 8.619-3.915 9.883.694.956.431.67 1.462 1.426 2.46-2.024 15.264-28.79 16.217-32.742zm-113.2-42.879c10.004 2.272 21.415.131 30.982 3.117 2.358 2.579 6.073 7.966 8.795 8.345 1.433-2.198.057-5.651-.588-8.096l-4.441-6.545c-2.292-4.018-5.578-7.986-8.207-11.857-3.684-5.422-5.231-9.568-10.838-13.246l13.788 20.595c-9.039-3.892-10.321-7.705-15.871-15.755-3.273 4.247-11.205 18.168-13.62 23.442zm-1.454-1.122c1.598-3.031 12.039-23.547 11.988-25.582-2.343.916-12.702 17.429-14.965 20.748.428 2.804.694 2.817 2.977 4.834zm71.289 192.886c-4.889 2.671-5.33 2.483-4.48 8.225 1.366-1.902 4.645-6.02 4.48-8.225zm-90.245-27.614c3.598 3.854 9.688 17.456 14.491 23.176l-1.485-4.993c-2.838-5.022-7.888-14.805-11.919-18.522zm-52.531-49.495c-4.762 6.005-16.309 27.573-19.385 34.546 3.697.232 6.015.381 9.69.145 1.221-5.081 2.72-12.074 4.217-16.935 1.909-6.199 3.762-11.385 5.478-17.756zm174.137-28.228c1.643 3.391 4.4 9.558 6.82 12.305l1.396-.013.442.461c.492 7.421 3.957 10.574 7.405 17.528 1.159 1.685 2.278 3.396 3.358 5.132 2.185-4.942.44-14.454 1.36-19.643 1.818-10.254 2.268-19.004 1.998-29.421-.186-7.207 1.458-15.789.695-23.005l-.525-.373c-2.573 1.745-3.861 6.092-5.608 6.831.577-3.208 6.376-8.417 5.686-14.273-2.612 3.112-8.632 13.587-10.059 17.535.247.538.522 1.08.666 1.658.504 2.02-12.038 22.03-13.634 25.278z" fill="#111011"/><path d="m398.46 193.017 1.018-4.311c.181 3.897.355 5.214-.615 9.013l-.381-.066c-.164-2.001-.171-2.633-.022-4.636z" fill="#020202" fill-opacity=".972549"/><path d="m398.46 193.017c.051-1.682-.067-3.582.652-5.039l.366.728z" fill="#111011" fill-opacity=".772549"/><path d="m410.012 253.436c1.171-6.412 7.741-18.499 11.742-23.781-3.451 11.584-4.188 14.36-11.742 23.781z" fill="url(#a)"/><path d="m557.973 157.643c2.105-.294 17.2.237 18.924.691l-.39.813c2.096.817 3.492.471 5.525.773-7.847.2-15.698-.046-23.547-.225-.987-.305-.876-.53-1.795-1.499z" fill="#4c4a4d"/><path d="m576.897 158.334c4.661.184 14.893.316 19.073.872-3.058.917-4.843.889-7.98 1.046l-5.958-.332c-2.033-.302-3.429.044-5.525-.773z" fill="#020202"/><path d="m591.115 160.453c2.796.307 5.288.723 8.057 1.19-3.724.4-8.127 1.017-11.809.42 1.209-.898 2.322-1.141 3.752-1.61z" fill="#fd9448" fill-opacity=".019608"/><path d="m545.926 821.084c.143 2.274.145 1.652-1.805 3.932-2.347 2.745-2.881 2.713-4.473 6.048-1.732 2.206-4.015 4.368-4.066 6.955 2.456-1.781 4.829-4.159 7.053-6.258l.438.849-.296.385.904 1.334c-2.016 2.342-4.239 4.451-6.133 6.664.422 3.533-.12 13.857 1.161 15.418l.672.184.185 2.092-1.475-.177c-.562 5.707-1.512 11.649-2.065 17.252-.897 9.082.472 10.966-4.031 19.245-.108-6.224.659-21.333.117-26.252-.103-.11-.211-.214-.309-.328-3.346-3.908-1.472-27.046-1.125-33.126 3.172-3.853 11.348-10.828 15.248-14.217z" fill="#fb8337"/><path d="m542.635 831.761.438.849-.296.385.904 1.334c-2.016 2.342-4.239 4.451-6.133 6.664.422 3.533-.12 13.857 1.161 15.418l.672.184.185 2.092-1.475-.177-1.909.535c-.109 1.691.021 2.047-.852 3.497l-.457-.466c-.715-3.09.522-19.521.709-24.057 2.456-1.781 4.829-4.159 7.053-6.258z" fill="#d8682b"/><path d="m542.635 831.761.438.849-.296.385c-1.69 1.675-4.86 4.657-6.281 6.352.14 4.624-.605 17.102-.314 19.698-.109 1.691.021 2.047-.852 3.497l-.457-.466c-.715-3.09.522-19.521.709-24.057 2.456-1.781 4.829-4.159 7.053-6.258z" fill="#240e07"/><path d="m742.423 682.583c6.383 3.839 10.807 8.943 17.813 9.017.996.077.615.071 1.637-.362 4.453-.551 14.645.68 17.522-2.237 3.16 2.292 5.687 2.998 9.47 1.812 4.432-1.39 9.103-1.474 13.289-3.332l.411.114c-2.981 4.188-27.497 10.89-32.774 11.585-7.578.998-16.427 2.6-22.681-2.919 1.989-.298 2.427-.169 3.034-1.953-.893-3.223-7.435-7.388-10.118-10.351z" fill="#fb7a2e"/><path d="m557.419 804.926c1.564-1.996.482-2.34 2.466-3.415.447 2.268.744 4.942 1.931 6.83l.427.247c3.022-.776 4.731 2.211 5.588 4.849-.727 1.89-7.17 7.166-9.05 8.834-4.256 3.775-8.909 13.034-15.1 12.058l-.904-1.334.296-.385-.438-.849c-2.224 2.099-4.597 4.477-7.053 6.258.051-2.587 2.334-4.749 4.066-6.955 1.592-3.335 2.126-3.303 4.473-6.048 1.95-2.28 1.948-1.658 1.805-3.932 1.2-1.804 9.672-8.368 12.083-10.92-.209-1.744-.405-3.49-.59-5.238z" fill="#fb7a2e"/><path d="m539.648 831.064c3.56-3.298 6.801-6.823 10.488-10.189 3.05-2.784 6.768-5.631 9.535-8.309.016 4.11-7.9 10.388-11.168 13.438-1.951 1.831-4.123 3.756-5.868 5.757-2.224 2.099-4.597 4.477-7.053 6.258.051-2.587 2.334-4.749 4.066-6.955z" fill="#d8682b"/><path d="m559.671 812.566c.906-1.176.807-1.137 2.174-1.69l-.217 1.891.492.574 1.652-1.027.45.339c-2.474 2.794-11.517 10.444-15.169 13.988l-.55-.637c3.268-3.05 11.184-9.328 11.168-13.438z" fill="#240e07"/><path d="m548.503 826.004.55.637-5.98 5.969-.438-.849c1.745-2.001 3.917-3.926 5.868-5.757z" fill="#8b3d1e"/><path d="m604.351 865.145c10.018-3.663 4.428-11.358 8.725-16.952 1.188 6.997.877 24.201-1.082 31.094-1.483 5.219.233 13.794-3.951 16.326-5.952-1.706-3.773-17.988-5.503-23.797l.012-2.67c.717-1.133 1.273-2.722 1.799-4.001z" fill="#fb7a2e"/><path d="m521.945 700.803c-.491 3.541-.186 15.175-1.688 17.2-1.137-6.598-1.035-71.377.739-78.383.71 1.434.542 3.055.568 4.707.267-1.006.528-2.014.783-3.023l1.028.609c-1.031 14.359.086 32.011-.453 46.598-.198 5.362.347 13.409-.375 18.503-.325-2.121-.444-4.078-.602-6.211z" fill="#ebeae8"/><path d="m521.564 644.327c.267-1.006.528-2.014.783-3.023l1.028.609c-1.031 14.359.086 32.011-.453 46.598-.198 5.362.347 13.409-.375 18.503-.325-2.121-.444-4.078-.602-6.211.01-7.826-.705-15.833-.748-23.613-.061-10.864.124-21.993.367-32.863z" fill="#020202"/><path d="m713.924 670.314c5.343-1.672 6.097-2.155 10.005 1.987l.364.398c1.204-.14 1.154-.11 2.242-.629 2.005 1.746 10.716 9.565 12.396 10.525l.931-.722.164 2.084c2.683 2.963 9.225 7.128 10.118 10.351-.607 1.784-1.045 1.655-3.034 1.953-1.679-1.796-7.255-5.798-9.429-7.459-5.347-4.084-10.603-8.284-15.766-12.598-1.696-.662-6.438-4.616-7.991-5.89z" fill="#020202"/><path d="m713.924 670.314c5.343-1.672 6.097-2.155 10.005 1.987l.364.398c1.204-.14 1.154-.11 2.242-.629 2.005 1.746 10.716 9.565 12.396 10.525-.421.876-.554 1.005-1.114 1.806-4.78.033-8.708-8.125-15.902-8.197-1.696-.662-6.438-4.616-7.991-5.89z" fill="#fb8337"/><path d="m591.439 748.63.661-.179c.649.729 5.317 6.323 5.568 6.526 6.486 5.256 13.219 10.138 19.662 15.462 4.462 3.688 13.746 14.719 17.716 17.09-2.023.329-2.51-.003-3.407 1.19l.099 1.321c-1.754-.996-5.344-4.757-6.924-6.291-10.831-10.519-22.586-20.201-32.874-31.25-.405-.435-.474-3.173-.501-3.869z" fill="#ebeae8"/><path d="m387.921 232.168c.051-1.925.017-1.869.673-3.663 1.189-1.242 1.818-1.179 3.519-1.484l.048.497c1.859 1.429 2.784 2.34 2.194 4.755-.755 3.786-.035 7.968 1.047 11.647l-.44.56c-1.261-1.896-1.301-2.675-1.862-4.947-1.358 2.663-2.522 8.272-1.988 11.097-.043 5.719-.715 11.418-.775 17.336-.057 5.521.722 13.696.024 18.664-3.109-15.635-3.428-38.511-2.44-54.462z" fill="#fd9448"/><path d="m392.161 227.518c1.859 1.429 2.784 2.34 2.194 4.755-.755 3.786-.035 7.968 1.047 11.647l-.44.56c-1.261-1.896-1.301-2.675-1.862-4.947-.528-3.167-.569-5.236-.681-8.441z" fill="#38130a"/><path d="m387.921 232.168c.051-1.925.017-1.869.673-3.663 1.189-1.242 1.818-1.179 3.519-1.484l.048.497.258 3.574c-2.015-.103-3.127-.533-4.498 1.076z" fill="#fb8337"/><path d="m597.149 840.664c2.31 2.175 2.468 2.344 5.269 3.476l1.318.442c.781 1.218.76 17.946.615 20.563-.526 1.279-1.082 2.868-1.799 4.001l-.012 2.67-.703.998c-.466-.596-.924-1.496-1.31-2.176-.359 2.327-.745 4.65-1.159 6.968-.199-1.642-.812-5.895-1.141-7.542-1.446-7.234 2.359-23.674-1.078-29.4z" fill="#e4a777"/><path d="m602.418 844.14 1.318.442c.781 1.218.76 17.946.615 20.563-.526 1.279-1.082 2.868-1.799 4.001l-.012 2.67-.703.998c-.466-.596-.924-1.496-1.31-2.176.301-8.277.669-18.387 1.891-26.498z" fill="#240e07"/><path d="m603.736 844.582c.781 1.218.76 17.946.615 20.563-.526 1.279-1.082 2.868-1.799 4.001-.184-3.858-.288-21.647 1.184-24.564z" fill="#f4c8ab"/><path d="m726.535 672.07c-1.146-1.517-1.282-1.652-2.068-3.348.331-1.517-.052-.846 1.517-1.868 8.677 3.575 9.111 8.521 18.962 11.681 1.454 2.884 1.82 3.96 4.616 5.663 4.341 4.795 7.803 4.69 10.674 7.402-7.006-.074-11.43-5.178-17.813-9.017l-2.397 1.374-.164-2.084-.931.722c-1.68-.96-10.391-8.779-12.396-10.525z" fill="#f4c8ab"/><path d="m726.535 672.07c-1.146-1.517-1.282-1.652-2.068-3.348.331-1.517-.052-.846 1.517-1.868 3.286 5.434 11.324 11.644 16.439 15.729l-2.397 1.374-.164-2.084-.931.722c-1.68-.96-10.391-8.779-12.396-10.525z" fill="#38130a"/><path d="m402.81 157.011c6.161-7.548 15.937-13.936 24.82-17.788 1.424.889 2.837 2.077 4.166 3.133-9.746 6.782-20.386 10.781-29.264 18.78l-.453-.753c.356-.933.543-2.346.731-3.372z" fill="#fb7a2e"/><path d="m328.509 726.238-.412.571c-3.162 4.342-7.77 8.146-10.331 12.683-8.09 14.331.482 38.608-4.207 52.627l-1.307.172c.068-7.741-.02-22.072-.762-29.222-.06-2.715-.072-5.432-.037-8.148 1.834-2.087 1.317-7.231 1.412-10.437l.395.879c1.31-6.686 10.175-14.935 15.249-19.125z" fill="#a2a09c"/><path d="m311.453 754.921c1.834-2.087 1.317-7.231 1.412-10.437l.395.879c-.343 14.495.537 28.958-.498 43.43-.076 1.068.169 2.436.797 3.326l-1.307.172c.068-7.741-.02-22.072-.762-29.222-.06-2.715-.072-5.432-.037-8.148z" fill="#2f2d2f"/><path d="m575.787 713.067-.223-2.005c.911-1.321.289-.788 2.337-1.165 4.256 3.489 5.434 6.953 9.141 10.334 3.094 2.821 7.048 3.745 10.512 7.206-1.158 4.857-1.047 4.912-.046 9.824-.668 1.763-.731 1.776-1.776 3.234l-3.8.761.605-12.417c-4.677-5.111-11.504-10.746-16.75-15.772z" fill="#ebeae8"/><path d="m393.1 239.533c.561 2.272.601 3.051 1.862 4.947.541.892 1.371 2.401 1.279 3.421-.52 5.793-.363 33.546-1.255 37.188l-.686.66c-3.034-3.303-.269-18.998-.773-23.515-.434-3.899-1.52-7.467-1.807-11.419l-.608-.185c-.534-2.825.63-8.434 1.988-11.097z" fill="url(#b)"/><path d="m409.429 693.308 2.353-.928c.992.742.609.312 1.203 1.241-3.753 4.035-25.068 26.277-28.546 26.982l-.218.046c1.221-7.3 19.095-22.304 25.208-27.341z" fill="#c1beba"/><path d="m532.779 126.96c8.359 6.243 10.563 12.819 17.027 19.078.054-2.522-4.87-9.794-6.486-12.3l.383-.881c2.23 3.333 9.64 13.232 9.733 16.058-.469-.093-.938-.186-1.407-.279 1.207 2.741 4.156 6.033 5.944 9.007l-1.283.553c-.607-.819-.33-.543-1.068-1.179l-2.086-1.799c-3.204-2.758-2.749-5.634-4.301-6.673-1.032 1.471-.376.978-1.972 1.615l-1.997-3.132c-2.42-4.447-6.151-10.164-9.092-14.289-1.386-2.122-2.229-3.532-3.395-5.779z" fill="#c1beba"/><path d="m497.195 735.599.825.96c-10.034 9.209-23.613 22.995-34.35 30.377l-1.093.146c-.358-5.188 10.861-10.167 14.276-14.047 3.111-3.536 6.034-9.657 10.228-11.392.052.388.037.122-.137.829l-.163.644c2.334-.001 8.338-5.73 10.414-7.517z" fill="#ebeae8"/><path d="m551.228 436.809c2.418-3.227-2.423-11.876 1.776-15.424-.209 4.253 1.464 14.889.665 17.884-2.699 10.122-2.181 16.598-1.471 26.965.121 1.768-1.784 9.611-2.199 11.91-1.28 7.406-2.361 14.845-3.239 22.31-.399-5.019 1.851-23.87 2.349-30.185 1.458-7.466 1.392-13.933 1.617-21.53.434-3.622.053-7.815.502-11.93z" fill="#2f2d2f"/><path d="m254.041 691.566c1.854-4.383 12.918.643 16.463-.893 4.003-1.734 7.338-9.237 12.051-11.156l1.154 1.101c-1.463 1.318-3.354 3.132-4.849 4.325l1.373 1.731c-5.281 4.906-8.658 7.927-16.621 7.81-1.519-.022-9.124-1.021-10.437-1.452z" fill="#ebeae8"/><path d="m278.86 684.943c1.179-2.062 2.299-3.525 3.695-5.426l1.154 1.101c-1.463 1.318-3.354 3.132-4.849 4.325z" fill="#2f2d2f"/><path d="m547.263 150.16c1.596-.637.94-.144 1.972-1.615 1.552 1.039 1.097 3.915 4.301 6.673l2.086 1.799c.738.636.461.36 1.068 1.179.919.969.808 1.194 1.795 1.499.879 1.833 1.442 3.665 3.179 4.576 1.591.16 2.634.218 4.235.254-.6.369-.969.744-1.507 1.208-.78 2.362-.478 4.825-.398 7.361-7.177-6.338-12.886-14.164-16.731-22.934z" fill="#a0887b"/><path d="m641.314 718.787c10.351.995 20.987-1.162 30.877.601 1.325.237 2.759 1.614 3.625 2.627-6.836.258-30.17.536-35.877-.945l.413-2.117z" fill="#c1beba"/><path d="m325.242 795.941c.396-2.717.623-3.686 2.283-5.753.152 2.784.36 4.88-1.607 7.001-4.367 4.705-11.6 13.735-17.619 15.511-3.635 4.706-10.118 13.453-15.513 15.748 3.233-5.711 26.623-28.654 32.456-32.507z" fill="#c1beba"/><path d="m763.957 774.4c-.228-.804-1.136-4.212-1.698-4.733-6.054-5.603-11.43-11.88-17.13-17.777.062.064-1.758-.948-1.747-.942l.841.366.11-.209c8.952 4.628 19.246 18.795 28.053 23.746 2.199 1.236 4.574 3.47 6.19 5.42-4.01-1.291-5.563-3.436-8.661-6.429.821 1.831 2.247 3.842 3.366 5.552l-1.158.504c-2.551-2.562-5.004-3.81-8.166-5.498z" fill="#c1beba"/><path d="m567.635 714.389 2.218-.471.04.838c6.562 5.9 23.848 10.354 18.119 21.942-1.098 2.22-.773 5.011-.377 7.389l-.517.206-1.177-1.051c.112-2.423.289-6.032.057-8.337-.879-8.708-11.551-15.289-18.363-20.516z" fill="#c1beba"/><path d="m589.581 757.611c6.733 2.761 22.908 18.574 30.025 24.516l-2.606 1.208c-1.874-1.493-3.942-3.517-5.726-5.173-4.977-3.927-11.052-9.742-15.667-14.115-1.08-.679-4.999-5.24-6.026-6.436z" fill="#a2a09c"/><path d="m595.607 764.047 1.081-.286c3.184 2.113 12.74 10.493 14.556 13.733l.03.668c-4.977-3.927-11.052-9.742-15.667-14.115z" fill="#2f2d2f"/><path d="m595.97 159.206c3.21.904 6.661.993 10.003 1.233 1.144 1.026 2.282 2.058 3.414 3.098-10.407.148-23.145.937-33.263.434 5.078-2.197 5.744-2.243 11.239-1.908 3.682.597 8.085-.02 11.809-.42-2.769-.467-5.261-.883-8.057-1.19l-3.125-.201c3.137-.157 4.922-.129 7.98-1.046z" fill="#fd9448"/><path d="m549.943 595.917c-1.36-2.219-4.063-4.517-5.949-6.725l.717-.331c8.441 6.925 15.283 15.025 24.964 20.929 3.699 2.255 5.501 8.775 11.141 10.022l.221.801-.808.074c-5.411-1.965-5.693-6.673-10.638-6.547-4.277-4.488-8.345-8.134-12.985-12.261-2.235-1.972-4.456-3.959-6.663-5.962z" fill="#020202"/><path d="m556.606 601.879c4.64 4.127 8.708 7.773 12.985 12.261 3.358 4.011 6.308 7.641 11.455 9.405l.748 1.182c-15.273-2.084-14.975-11.935-25.729-21.779z" fill="#c1beba"/><path d="m551.748 126.269 1.288.105c4.578 3.39 19.654 9.388 25.512 12.261-2.304 1.046-2.881.881-5.51.89-.488.478-.587.472-.898 1.05-4.267-4.161-8.882-5.334-13.804-8.485-1.968-1.26-4.847-4.131-6.588-5.821z" fill="#2f2d2f"/><path d="m608.47 619.127c6.803-.166 14.802.738 21.632 1.452 2.703 3.327 5.348 7.428 5.678 11.814-1.94-1.951-4.928-6.993-7.549-9.992-4.322-.135-17.188.09-19.761-3.274z" fill="#848485"/><path d="m409.429 693.308c5.486-5.597 14.975-15.658 21.479-19.166-1.506 1.855-2.997 3.723-4.473 5.602l.236.744c-1.852 1.736-12.511 12.239-13.686 13.133-.594-.929-.211-.499-1.203-1.241z" fill="#c1beba"/><path d="m565.02 767.229.186 1.717c.344 5.045.407 10.433.975 15.402-1.53-1.595-2.156-2.24-3.887-3.578l-1.1.156c-.274-1.578-.244-5.708-.28-7.504l.014-.478c-.034-2.089-.112-2.053.603-3.966z" fill="#fd9448"/><path d="m565.02 767.229.186 1.717c-.146 2.265.245 2.629-.912 3.982-1.225.046-2.142.058-3.366.016-.034-2.089-.112-2.053.603-3.966z" fill="#ebeae8"/><path d="m301.452 673.621c-1.507 2.388-4.101 5.124-5.141 7.266-11.089 4.019-16.214 21.527-27.153 16.969 9.557-.737 18.197-13.753 25.76-18.745 2.02-1.333 4.688-3.825 6.534-5.49z" fill="#ebeae8"/><path d="m411.855 208.248c2.222 2.668 9.336 12.617 10.864 13.959 1.255 1.065 2.428 4.96 3.188 6.778-1.989.534-2.117.583-4.153.67-2.22-6.33-6.89-15.311-9.899-21.407z" fill="#020202"/><path d="m688.891 737.866c-1.216-2.595-2.347-3.708-4.194-5.835 6.502 5.002 14.887 11.758 18.542 19.239-1.809-.369-2.456-1.018-3.76.436-2.98-5.009-6.533-9.653-10.588-13.84z" fill="#c1beba"/><path d="m472.864 657.52c3.56-3.209 7.187-6.602 10.965-9.529-3.169 4.849-4.655 7.074-9.795 10.219-.639 10.471 2.084 24.188-1.854 33.019l-.609-.931c1.944-3.78 1.592-27.306 1.293-32.778z" fill="#ebeae8"/><path d="m510.576 728.331c7.72 3.763 18.201 14.278 24.633 20.292-1.921-1.152-5.948-3.937-7.706-4.377-2.505-1.367-10.635-9.02-13.116-11.289-1.441-1.895-2.202-2.1-3.811-4.626z" fill="#ebeae8"/><path d="m542.674 750.202c4.312 1.664 20.841 13.737 22.346 17.027l-3.489 1.749c-1.324-6.81-12.505-11.513-18.857-18.776z" fill="#ebeae8"/><path d="m540.52 627.51c2.388-.113 2.682.063 4.201 2.151 1.096-1.606.756-1.652 2.249-2.288l1.021.617c.315 1.326.294 1.471.312 2.849 2.218.627 2.268.219 3.226 1.667l-.979 2.249c.669.425.358.413.878.319 1.742 2.622 3.457 4.123 5.709 6.306l-.843.735c-4.172-4.21-13.361-11.012-15.774-14.605z" fill="#2f2d2f"/><path d="m617 783.335 2.606-1.208c5.097 3.942 11.542 9.402 15.199 14.79-6.182-2.998-12.701-8.984-17.805-13.582z" fill="#c1beba"/><g fill="#ebeae8"><path d="m550.726 448.739c-.225 7.597-.159 14.064-1.617 21.53.037-1.542.227-2.732-.382-4.127-1.266.712-1.535 1.822-2.388 3.325.266-1.812.987-4.593 1.117-5.956.632-6.603-.794-8.561 2.104-14.8z"/><path d="m320.818 668.595c5.857-.616 13.908-1.598 19.641-.04l-.469.708c-2.594.373-7.238.618-9.095 1.635-3.955.177-8.355-.905-13.313-.814.934-.903 1.978-1.085 3.236-1.489z"/><path d="m503.552 696.465c1.574 1.389 2.11 1.478 2.264 4.01.197 3.25.02 12.455-1.769 14.942l-.57-.447-.319-2.728c-.312-5.693.519-10.251.394-15.777z"/><path d="m283.709 680.618c5.755-4.913 8.262-7.236 15.262-10.144-6.46 5.932-11.855 9.51-18.738 16.2l-1.373-1.731c1.495-1.193 3.386-3.007 4.849-4.325z"/><path d="m618.485 675.393-1.712.097c-3.912-1.903-13.344-10.537-14.815-14.259l.551-.199 1.934 1.313c1.978 1.898 13.258 11.771 14.042 13.048z"/></g><path d="m621.203 301.033c-1.516-2.48-1.226-4.681.477-6.918 3.735-2.242 5.139.343 7.031 3.043-3.223 1.08-4.726 1.851-7.508 3.875z" fill="#38130a"/><path d="m466.277 654.37.536 13.882c.78-1.191.951-3.74 1.167-5.258-.079 2.872-.652 7.488.81 9.612-1.317 4.991-.77 7.267-2.66 12.803-.507-6.051-.164-24.74.147-31.039z" fill="#626063"/><path d="m561.194 780.926 1.1-.156c1.731 1.338 2.357 1.983 3.887 3.578.665 2.898.24 7.133-3.325 7.648l-.529-.233c.256-4.465-.255-6.371-1.133-10.837z" fill="#ebeae8"/><path d="m398.654 182.479.365-3.016.342-.175c2.475 2.943 7.709 13.1 9.202 17.039-3.491-1.595-7.741-10.11-9.909-13.848z" fill="#fb8337"/><path d="m551.428 635.074c5.898-.408 11.248 8.189 13.183 12.99-2.319-2.017-5.376-4.537-7.474-6.684-2.252-2.183-3.967-3.684-5.709-6.306z" fill="#ebeae8"/><path d="m507.578 727.212c1.308 1.112 1.256.989 2.998 1.119 1.609 2.526 2.37 2.731 3.811 4.626l-2.202-.846c-2.055-1.254-1.342-1.218-3.423-1.146-2.068 1.081-3.18 2.577-4.773 4.308l-2.398-1.897c1.902-1.57 4.586-4.174 5.987-6.164z" fill="#2f2d2f"/><path d="m351.557 707.276c7.368-.789 11.397.527 18.275.774l4.816 1.633c-7.691.637-15.733-.022-23.091-2.407z" fill="#848485"/><path d="m340.459 668.555c6.568-.007 6.849.956 12.842 2.345-7.468.128-14.938.127-22.406-.002 1.857-1.017 6.501-1.262 9.095-1.635z" fill="#626063"/><path d="m467.98 662.994c.655-9.204 3.63-12.789 10.482-18.899-12.043 16.193-7.306 10.512-9.672 28.511-1.462-2.124-.889-6.74-.81-9.612z" fill="#c1beba"/><path d="m649.269 645.602c1.329-.238 1.213-.517 2.047.192 2.63 2.235 6.308 7.574 7.949 10.498-1.416-1.147-2.07-.569-2.932-1.07-2.26-1.313-6.34-7.268-7.064-9.62z" fill="#2f2d2f"/><path d="m394.355 232.273c.591.895 2.427 3.805 3.031 4.438.095 1.898.305 4.361.124 6.207-.698 1.066-.344.785-1.343 1.439l-.765-.437c-1.082-3.679-1.802-7.861-1.047-11.647z" fill="#d8682b"/><path d="m630.083 709.556c4.447 2.499 7.485 7.694 11.231 9.231l-.962.166-.413 2.117c-4.602-4.119-7.425-5.822-9.856-11.514z" fill="#a2a09c"/><path d="m471.571 690.298.609.931c-2.161 3.193-4.402 5.531-7.307 8.066l-.814-.403-1.428-2.009c2.872-2.218 5.891-4.654 8.94-6.585z" fill="#ebeae8"/><path d="m307.266 671.521c1.113-.32 2.178-.361 2.613-1.096l-3.495-.561-.125-.488c3.014-1.824 10.483-.851 14.559-.781-1.258.404-2.302.586-3.236 1.489-2.652 1.017-7.349 1.209-10.316 1.437z" fill="#6d5e57"/><path d="m481.254 685.531c.53 1.152.894 1.852 1.28 3.071-1.867 2.459-3.916 5.001-6.371 6.905-.053-1.399-.157-1.373-.805-2.65 1.882-2.508 3.848-4.951 5.896-7.326z" fill="#ebeae8"/><path d="m590.496 650.674c2.568.913 8.488 3.323 9.747 5.619-.377 1.197-.423 2.107-1.213 2.804-2.657-1.671-6.701-5.819-8.534-8.423z" fill="#ebeae8"/><path d="m633.907 781.525c-3.229-2.188-11.94-8.019-12.376-11.743l1.883-.162c1.7 1.676 3.13 3.054 4.68 4.887.944 2.039 3.919 4.272 5.813 7.018z" fill="#ebeae8"/><path d="m556.478 773.038c1.869 2.822.456 3.04 2.622 5.759.166 2.029.509 4.696.022 6.615l-2.149.705c-.838-3.224-.604-9.743-.495-13.079z" fill="#fb8337"/><path d="m482.646 670.99c.496 3.778.192 7.254.84 11.2.029 3-.118 3.509-.952 6.412-.386-1.219-.75-1.919-1.28-3.071.087-5.911.209-8.758 1.392-14.541z" fill="#c1beba"/><path d="m557.666 789.92c1.931 4.633 1.256 9.24 2.219 11.591-1.984 1.075-.902 1.419-2.466 3.415-.136-5.003-.054-10.01.247-15.006z" fill="#644130"/><path d="m778.948 632.186c-2.536.442-12.952.788-14.861-.138 3.381-1.078 6.861-1.205 10.472-1.741 1.504.59 2.969 1.111 4.389 1.879z" fill="#ebeae8"/><path d="m560.914 773.422c.036 1.796.006 5.926.28 7.504.878 4.466 1.389 6.372 1.133 10.837-.114-.883-.249-1.763-.404-2.639-.406-2.201-.979-2.47-2.801-3.712.487-1.919.144-4.586-.022-6.615l1.351-1.148c.255-1.579.354-2.629.463-4.227z" fill="#38130a"/><path d="m727.746 744.904c3.499-.821 11.159.525 16.071.203-4.193.397-11.048 4.015-14.317 1.582.653-1.042 1.174-.842 2.775-1.284z" fill="#848485"/><path d="m397.386 236.711c1.639-.97 1.569-.931 3.448-1.289.092 2.798.155 4.916-.016 7.743l-3.308-.247c.181-1.846-.029-4.309-.124-6.207z" fill="#fd9448"/><path d="m537.911 576.456 1.268-.766 1.243 2.42c.071 2.032.2 4.258.193 6.273-1.476-.177-1.546-.042-2.678-.939-.93-2.183-.327-4.522-.026-6.988z" fill="#ebeae8"/><path d="m591.932 741.256 3.8-.761c-.409 7.5-2.586 3.622-3.632 7.956l-.661.179c.091-2.349.331-4.999.493-7.374z" fill="#ebeae8"/><path d="m575.787 713.067c-2.868-2.456-6.394-5.325-8.993-7.961 2.823.597 4.856 2.998 7.828 3.681.751.173 2.452.824 3.279 1.11-2.048.377-1.426-.156-2.337 1.165z" fill="#c1beba"/><path d="m536.174 132.739c2.941 4.125 6.672 9.842 9.092 14.289l-.889.391c-1.711-.542-.951-.046-2.055-1.949.038-2.828-5.051-9.701-6.852-12.641z" fill="#4c4a4d"/><path d="m497.195 735.599c3.328-3.114 6.183-5.828 9.797-8.638l.586.251c-1.401 1.99-4.085 4.594-5.987 6.164l-3.571 3.183z" fill="#c1beba"/><path d="m556.065 602.948c-3.061-2.701-8.705-7.351-11.094-10.188 1.429.293 3.692 2.211 4.972 3.157 2.207 2.003 4.428 3.99 6.663 5.962z" fill="#c1beba"/><path d="m622.477 682.82c2.464 1.534 4.485 2.683 7.04 4.049 2.359 2.453.347 1.191 1.619 4.573-2.688-1.54-6.584-6.236-8.659-8.622z" fill="#ebeae8"/><path d="m549.56 448.711c.072-2.744-.283-11.049 1.074-12.919l.594 1.017c-.449 4.115-.068 8.308-.502 11.93z" fill="#c1beba"/><path d="m542.322 145.47c-1.799-2.385-7.461-10.71-7.899-13.437l1.047.796c1.801 2.94 6.89 9.813 6.852 12.641z" fill="#c1beba"/><path d="m581.046 623.545.573.086c4.642.649 8.573.224 13.248.936-2.581.469-10.627.871-13.073.16z" fill="#848485"/><path d="m494.041 417.936c3.577.162 4.665.145 8.135 1.13-1.298.377-10.415.04-12.803.152l-1.029-.387-.077-.491c1.977-.197 3.79-.304 5.774-.404z" fill="#020202"/><path d="m456.859 791.09c2.076-3.482 2.638-4.417 6.323-6.007l-.237 1.418-.106.376c-2.222 1.297-2.266 1.444-2.844 4.113z" fill="#d8682b"/><path d="m434.095 618.508 8.829-.731c-2.806 3.919-5.238 3.34-8.829.731z" fill="#2f2d2f"/><path d="m316.174 797.484c1.228-1.401 2.828-3.617 4.47-4.194.078 2.344-3.722 5.799-5.56 7.099z" fill="#ebeae8"/><path d="m565.445 712.942.813-.715-1.52-2.546c1.686-.354 4.429 2.765 5.115 4.237l-2.218.471c-.375-.179-1.759-1.156-2.19-1.447z" fill="#ebeae8"/><path d="m477.129 636.573c2.254-2.697 4.55-5.586 7.069-8.009-1.785 3.761-3.655 5.603-6.418 8.631z" fill="#848485"/><path d="m537.911 576.456c.005-1.795-.208-5.475.837-6.886.714 1.699.461 4.196.431 6.12z" fill="#ebeae8"/><path d="m402.532 161.136c-.91.956-2.49 2.65-3.841 2.634.638-1.596 1.969-2.311 3.388-3.387z" fill="#644130"/><path d="m497.078 139.721c10.004 2.272 21.415.131 30.982 3.117 2.358 2.579 6.073 7.966 8.795 8.345 1.433-2.198.057-5.651-.588-8.096 3.578 3.714 6.687 9.303 10.095 13.4l2.217 2.35.69.977 1.581 1.008c1.398.69 1.618 1.634 2.3 3.073.915 3.025.76 4.223-.906 6.891-1.442.224-1.005.156-2.521-.097-2.557.837-11.415 11.307-14.235 14.128 1.714 1.745 1.053 1.616 2.955 1.755 3.57-1.746 7.109-11.585 11.971-5.203l-1.26 1.365c2.384 2.745 5.458.593 5.551 5.058.072 3.512-2.755 8.032-.83 10.521 2.206.662 4.605-1.662 6.248-2.985l1.146.43c2.539 1.805 4.536.388 7.353-.622-2.277 4.719-2.288 4.936-1.613 10.182-2.35 1.348-4.087 2.263-6.225 3.961.663 3.114 1.184 8.425 3.742 9.865 3.073 1.73 5.042.696 8.076 2.037 2.376.245 1.4-.206 3.12 1.193 1.449 3.228 3.426 8.761-.127 11.11-1.841.014-.969.247-2.612-1.008-3.683-1.369-3.744-1.269-7.656-1.57-.809.138-.747.2-1.509.576-.836 2.088-.52 4.808-.465 7.153l10.425 4.308-4.282 7.441c-3.878-.357-6.141-.352-9.969-.053l-3.663 6.535c2.269 1.513 4.054 2.812 6.212 4.453-2.071 3.846-3.649 5.886-6.38 9.258-2.326-1.484-4.881-2.973-7.256-4.41l-4.033 4.308c1.54 1.634 2.66 3.476 3.914 5.343-2.692 3.243-4.573 4.538-7.993 6.729-5.736-6.45-9.761-7.379-10.396 2.535-5.654 4.229-10.969 5.925-14.586-1.433-3.712-.632-7.61-.787-11.379-1.02-3.938 5.787-7.306 3.793-13.491 2.415-.015-2.936.161-4.722.473-7.586-3.193-1.952-5.344-2.903-8.784-4.437-2.165 2.604-2.912 3.233-5.482 5.357-3.353-3.042-5.698-5.539-8.778-8.886 1.872-2.274 2.759-3.782 4.263-6.259-1.397-2.331-3.398-4.956-5.008-7.198l-4.564 3.989c-2.554-5.206-4.872-9.495-7.719-14.535l6.994-4.771-1.026-7.709-8.968.003c1.486-9.305-.664-9.365 9.44-12.42.311-3.306.896-6.841 1.383-10.147l-5.34-3.716c2.361-4.514 4.33-7.739 7.341-11.803 2.168.853 4.82 2.244 6.959 3.289 7.863-8.32 2.684-5.395 1.354-10.434.657-3.599 5.352-6.985 8.258-9.559l.952.169c1.122 1.183 2.704 3.014 4.016 3.865l.292.412c2.435-2.706 4.839-6.185 7.61-9.277l2.997-2.963c3.034-3.681 5.565-5.561 9.424-8.26 1.313-.865 2.03-1.041 3.486-1.55-4.306-.037-8.611-.111-12.916-.222-1.391-1.23-2.059-1.171-3.996-1.544l-.67-.124.008-.592c-2.841.179-3.024.726-5.729-.494 1.561-3.829 4.977-8.2 6.672-12.551z" fill="#fb7a2e"/><path d="m497.078 139.721c10.004 2.272 21.415.131 30.982 3.117 2.358 2.579 6.073 7.966 8.795 8.345 1.433-2.198.057-5.651-.588-8.096 3.578 3.714 6.687 9.303 10.095 13.4l2.217 2.35.69.977-1.892 1.442-1.227-.237c-2.81-.219-9.873-.568-12.398.296-4.093-1.797-8.78-1.373-13.308-1.371-2.305.146-8.522.32-10.395.674-4.306-.037-8.611-.111-12.916-.222-1.391-1.23-2.059-1.171-3.996-1.544l-.67-.124.008-.592c-2.841.179-3.024.726-5.729-.494 1.561-3.829 4.977-8.2 6.672-12.551z" fill="#fb7a2e"/><path d="m546.362 156.487 2.217 2.35.69.977-1.892 1.442-1.227-.237c-2.81-.219-9.873-.568-12.398.296-4.093-1.797-8.78-1.373-13.308-1.371-2.305.146-8.522.32-10.395.674-4.306-.037-8.611-.111-12.916-.222-1.391-1.23-2.059-1.171-3.996-1.544l-.67-.124.008-.592c7.978-1.029 51.813-.783 53.887-1.649z" fill="#8b3d1e"/><path d="m548.579 158.837.69.977-1.892 1.442-1.227-.237c-2.81-.219-9.873-.568-12.398.296-4.093-1.797-8.78-1.373-13.308-1.371 3.862-.91 22.261-.566 28.135-1.107z" fill="#38130a"/><path d="m510.049 160.618c1.873-.354 8.09-.528 10.395-.674 4.528-.002 9.215-.426 13.308 1.371 2.525-.864 9.588-.515 12.398-.296l1.227.237 1.892-1.442 1.581 1.008c1.398.69 1.618 1.634 2.3 3.073.915 3.025.76 4.223-.906 6.891-1.442.224-1.005.156-2.521-.097-2.557.837-11.415 11.307-14.235 14.128l-.242-.702c-5.665-1.95-4.167-5.108-3.099-9.692-8.403-3.318-10.216-4.702-14.011 4.275-7.827-.954-10.859.102-10.728-8.578-3.156.698-5.259 1.151-8.484 1.523l-1.785-1.215c3.034-3.681 5.565-5.561 9.424-8.26 1.313-.865 2.03-1.041 3.486-1.55z" fill="#111011"/><path d="m549.269 159.814 1.581 1.008c1.398.69 1.618 1.634 2.3 3.073l-6.338 5.863c-1.351-1.893-.485-1.315-2.592-1.933-1.443 1.795-2.72 3.295-5.187 2.471-.488-1.223-.453-1.136-.316-2.454 1.956-.637 4.173-4.653 7.433-6.823l1.227.237z" fill="#38130a"/><path d="m549.269 159.814 1.581 1.008c-.967 3.069-3.299 5.861-6.572 6.529.841-1.972 2.082-4.173 3.099-6.095z" fill="#d8682b"/><path d="m533.752 161.315c2.525-.864 9.588-.515 12.398-.296-3.26 2.17-5.477 6.186-7.433 6.823l1.773-5.772c-4.472 2.565-8.198 5.878-13.2 8.718 1.93-4.401 3.378-5.932 6.462-9.473z" fill="#d8682b"/><path d="m546.812 169.758 6.338-5.863c.915 3.025.76 4.223-.906 6.891-1.442.224-1.005.156-2.521-.097-2.557.837-11.415 11.307-14.235 14.128l-.242-.702c3.906-4.477 7.895-9.669 11.566-14.357z" fill="#ae5627"/><path d="m518.543 160.936.396.747c-1.667 2.313-5.917 5.528-8.275 7.288l-.318-.272c2.173-3.394 4.948-5.521 8.197-7.763z" fill="#ae5627"/><path d="m511.452 161.553.313.662c-.995 1.709-2.657 2.66-4.282 3.835l-.397-.74c1.147-1.729 2.649-2.553 4.366-3.757z" fill="#8b3d1e"/><path d="m572.602 221.181c2.376.245 1.4-.206 3.12 1.193 1.449 3.228 3.426 8.761-.127 11.11-1.841.014-.969.247-2.612-1.008-3.683-1.369-3.744-1.269-7.656-1.57 7.87-.563 7.012-2.666 7.275-9.725z" fill="#38130a"/><path d="m572.983 232.476c.13-2.42.118-3.334 2.085-5.011-.516 2.519-.472 3.101-2.085 5.011z" fill="#8b3d1e"/><path d="m486.532 182.668c2.435-2.706 4.839-6.185 7.61-9.277l1.23.82c.64 2.119 1.115 3.713 1.57 5.872-3.963 3.052-5.336 5.012-10.41 2.585z" fill="#111011"/><path d="m494.142 173.391 2.997-2.963 1.785 1.215c-1.388.857-2.414 1.38-3.552 2.568z" fill="#38130a"/><path d="m511.756 191.725c30.279-1.051 50.031 36.157 29.831 59.54-6.449 7.466-17.942 15.537-28.14 16.299-20.498.196-37.039-10.812-39.255-32.222-1.104-10.612 2.167-21.216 9.058-29.363 7.718-9.22 16.758-13.206 28.506-14.254z" fill="#111011"/><path d="m513.743 203.685c1.037-.29 1.606-.762 2.839-1.054 7.628 1.407 16.835 4.796 18.422 13.384-1.038.816-.959.763-2.266.987 5.912 11.921 3.975 13.656 1.911 26.304-3.219 3.612-10.576 11.157-15.622 11.298-.887-2.058.951-2.224-.305-4.166-2.425 1.089-2.361 3.168-5.017 3.982l-.525-.218c.937-4.195 4.676-7.584 4.216-11.472l-.744-.367c-2.308 1.426-3.741 4.445-6.143 6.754l-.513-.15-.028-.987c-.751-1.466-.839-1.944-2.285-2.749.546-4.976 3.567-7.421 4.281-13.02-2.351.815-5.77 8.501-9.206 11.612-1.885-.504-1.013-.065-2.524-1.673 1.204-3.562 3.391-6.442 3.8-9.674.783-2.267 3.674-9.242 2.7-11.062l-1.252.953-1.374-.407c.693-2.312 1.223-3.363.287-5.468l-1.48-.366c1.836-3.633 2.117-4.446 2.855-8.577-4.739 4.345-7.415 8.279-11.264 13.423l-1.109-.338c5.635-10.552 4.697-17.852 20.346-16.949z" fill="#fb7a2e"/><path d="m504.802 234.614c1.251-2.107 2.471-4.529 4.228-6.161l.731.129.305 1.264 1.898 2.365c-2.351.815-5.77 8.501-9.206 11.612-1.885-.504-1.013-.065-2.524-1.673 1.204-3.562 3.391-6.442 3.8-9.674z" fill="#240e07"/><path d="m510.066 229.846 1.898 2.365c-2.351.815-5.77 8.501-9.206 11.612-.018-2.491 5.482-8.977 7.308-13.977z" fill="#ae5627"/><path d="m504.034 232.476.768 2.138c-1.328 3.375-1.746 5.219-4.568 7.536 1.204-3.562 3.391-6.442 3.8-9.674z" fill="#8b3d1e"/><path d="m516.582 202.631c7.628 1.407 16.835 4.796 18.422 13.384-2.333-.641-7.559-7.713-9.752-9.15-1.964-1.286-6.342-3.121-8.67-4.234z" fill="#fb7a2e"/><path d="m513.743 203.685c1.037-.29 1.606-.762 2.839-1.054 2.328 1.113 6.706 2.948 8.67 4.234 2.193 1.437 7.419 8.509 9.752 9.15-1.038.816-.959.763-2.266.987-5.478-8.065-9.76-10.806-18.995-13.317z" fill="#240e07"/><path d="m516.545 233.554c-2.213 5.381-3.892 9.201-6.577 14.426-.751-1.466-.839-1.944-2.285-2.749 3.036-3.01 4.907-7.659 8.862-11.677z" fill="#38130a"/><path d="m530.297 253.01c.337.204.119.033.369.744-3.133 5.41-8.171 6.919-13.935 8.091l-.292-.209.232-.582c4.237-1.678 9.668-5.485 13.626-8.044z" fill="#ae5627"/><path d="m507.794 195.014.937.319c-1.157 1.255-6.405 2.865-8.435 3.848-3.44 1.665-5.905 3.349-9.061 5.502-.503.249-.198.169-.941.082 4.447-5.406 10.999-7.914 17.5-9.751z" fill="#ae5627"/><path d="m492.802 206.95.385.405c-1.172 2.213-7.603 8.952-9.636 11.187l-.322-.392c.514-3.591 6.885-8.899 9.573-11.2z" fill="#8b3d1e"/><path d="m502.915 216.126 1.48.366c-3.858 2.843-5.773 11.678-9.366 15.555l-.323-.199c1.555-4.487 5.351-11.855 8.209-15.722z" fill="#8b3d1e"/><path d="m487.93 220.006.279.73c-1.487 3.778-3.235 6.842-5.166 10.384l-.428-.099-.26-1.009c.854-4.045 3.141-6.725 5.575-10.006z" fill="#d8682b"/><path d="m499.051 233.523c1.497-5.041 2-7.128 5.057-11.563l1.374.407c-2.104 3.624-4.006 7.828-6.431 11.156z" fill="#d8682b"/><path d="m493.397 220.634 1.109.338c-1.265 2.961-3.854 7.146-5.661 9.821 1.553-4.002 2.574-6.366 4.552-10.159z" fill="#8b3d1e"/><path d="m589.64 241.326c.831-2.677 1.048-.083 1.964-3.328.998-3.54 1.07-3.585 3.734-6.033l.089 1.859c.051 1.391.04 2.69.317 4.055 3.831 4.673 5.751 10.321 7.545 16.03l-7.38-9.819c1.686 3.97 3.352 7.404 5.669 11.053 8.151 12.835 16.38 19.203 16.088 35.362-7.705.011-46.395.499-50.593-1.112-.5-.988-.273-.616-1.328-1.305-1.873.093-3.405 1.382-5.029 2.447 2.048-5.663 6.017-11.919 9.353-16.869 5.173-7.983 11.475-20.351 16.835-29.2.704-1.397 1.575-2.001 2.736-3.14z" fill="#fb8337"/><path d="m589.64 241.326c.831-2.677 1.048-.083 1.964-3.328.998-3.54 1.07-3.585 3.734-6.033l.089 1.859c.051 1.391.04 2.69.317 4.055l-1.625 1.115c.551 3.548-5.047 11.999-7.006 15.533-5.771 10.411-11.71 20.836-18.297 30.752l-1.743 4.114c-.5-.988-.273-.616-1.328-1.305-1.873.093-3.405 1.382-5.029 2.447 2.048-5.663 6.017-11.919 9.353-16.869 5.173-7.983 11.475-20.351 16.835-29.2.704-1.397 1.575-2.001 2.736-3.14z" fill="#240e07"/><path d="m586.904 244.466c.279 7.761-9.706 24.886-13.838 31.464-1.055-.006-.739.091-1.596-.212-.901-.319-1.008-1.225-1.401-2.052 5.173-7.983 11.475-20.351 16.835-29.2z" fill="#fb8337"/><path d="m560.716 290.535c2.048-5.663 6.017-11.919 9.353-16.869.393.827.5 1.733 1.401 2.052.857.303.541.206 1.596.212-.985 1.926-2.203 4.879-3.819 6.101-1.33-.234-.924-.043-1.937-.848l-.84.569c.407 1.74.995 2.284 2.346 3.527l-1.743 4.114c-.5-.988-.273-.616-1.328-1.305-1.873.093-3.405 1.382-5.029 2.447z" fill="#d8682b"/><path d="m589.64 241.326c.831-2.677 1.048-.083 1.964-3.328.998-3.54 1.07-3.585 3.734-6.033l.089 1.859c.051 1.391.04 2.69.317 4.055l-1.625 1.115c-1.433 1.085-4.413 7.326-6.196 9.661.573-2.273 1.362-5.06 1.717-7.329z" fill="#fb8337"/><path d="m589.297 261.834c5.475.499 10.969 5.787 14.376 9.819 8.309 9.832 4.667 13.226-6.049 14.315-7.054.515-14.399.595-21.007-2.095 3.753-7.252 8.462-15.055 12.68-22.039z" fill="#020202"/><path d="m590.912 265.026c4.281 1.773 14.931 10.059 13.242 15.304-1.991 2.326-6.366 2.177-9.526 2.456-3.502.317-9.302-.204-12.977-.423 3.562-5.874 6.245-11.222 9.261-17.337z" fill="#fb7a2e"/><path d="m402.072 169.898c10.131-8.652 20.666-12.57 29.429-19.968 1.862 4.788 2.074 6.493 2.04 11.695-6.333-.109-10.755-.278-17.056.65-2.872 3.664-4.709 6.314-6.937 10.448 2.527 3.775 10.58 17.18 14.599 18.222 1.417-3.543-8.619-14.472-10.699-17.265 1.997-3.435 3.104-5.295 6.058-8.137 7.575-.043 18.466-.664 25.561-.344-5.806 10.411-11.578 20.115-15.485 31.477 4.902.942 7.237 1.236 11.657 3.708-2.673 3.951-9.645 13.854-10.661 17.976-1.397 1.162-1.124 1.359-2.458 1.263l-.314-.728c-7.792-9.097-21.93-33.696-28.892-44.949-.532-.86.558-1.952 1.245-2.985z" fill="#fb8337"/><path d="m400.159 170.961c4.475 5.436 27.684 42.809 27.647 47.934-7.792-9.097-21.93-33.696-28.892-44.949-.532-.86.558-1.952 1.245-2.985z" fill="#fb8337"/><path d="m400.159 170.961 1.913-1.063c6.727 11.85 13.509 23.167 20.841 34.652 2.692 4.216 5.037 9.564 7.665 13.81-1.397 1.162-1.124 1.359-2.458 1.263l-.314-.728c.037-5.125-23.172-42.498-27.647-47.934z" fill="#240e07"/><path d="m578.584 167.071c8.958-.278 29.077-1.288 37.463.054-2.491 5.438-4.56 9.595-5.769 15.475-6.408 2.524-10.651 15.37-13.764 21.433-.681 1.327-3.619 8.619-3.915 9.883-3.708-4.149-7.77-6.721-11.22-11.232 3.344-1.946 6.704-3.863 10.081-5.75-3.681-10.207-7.981-20.18-12.876-29.863z" fill="#fb8337"/><path d="m476.668 303.871-.467-2.62 1.746-.663c-.621-1.014-1.21.613-3.148-.931 3.602-1.76 43.137-1.128 44.532.826l-.452 2.026c2.972-.064 9.01-.608 11.492.601l.451.92c-.563 1.528-1.706 2.281-2.951 3.391-9.267.546-19.483 1.079-28.764 1.076 1.308 5.977 2.78 11.916 4.414 17.812.978 3.584 4.29 13.892 4.29 16.687l-.498.678c-4.369-.942-9.172-11.56-12.084-12.833-2.236-.283-2.922-2.011-4.07-3.794l-1.485-4.993c-2.838-5.022-7.888-14.805-11.919-18.522z" fill="#fb7a2e"/><path d="m476.668 303.871-.467-2.62 1.746-.663c-.621-1.014-1.21.613-3.148-.931 3.602-1.76 43.137-1.128 44.532.826l-.452 2.026c-14.331.053-26.97.588-41.124 1.023z" fill="#8b3d1e"/><path d="m489.674 322.054c2.233 2.091 4.694 5.876 5.555 8.787-2.236-.283-2.922-2.011-4.07-3.794z" fill="#f4c8ab"/><path d="m427.668 250.33c8.256 8.33 12.586 14.883 17.405 25.572-4.109 5.294-8.285 8.212-12.671 12.813-4.098.672-13.327.411-17.96.352 1.221-5.081 2.72-12.074 4.217-16.935 1.909-6.199 3.762-11.385 5.478-17.756 1.474-1.528 2.246-2.368 3.531-4.046z" fill="#fb8337"/><path d="m486.746 157.642c2.705 1.22 2.888.673 5.729.494l-.008.592.67.124c1.937.373 2.605.314 3.996 1.544 4.305.111 8.61.185 12.916.222-1.456.509-2.173.685-3.486 1.55-3.859 2.699-6.39 4.579-9.424 8.26l-2.997 2.963c-2.771 3.092-5.175 6.571-7.61 9.277l-.292-.412c-1.312-.851-2.894-2.682-4.016-3.865l-.952-.169c1.55-1.915 3.669-5.148 5.14-7.25-2.518-2.177-.843-2.719-3.862-4.621-1.253.481-1.644.686-2.983.907-2.501.679-4.076 5.161-5.919 7.429l-.96-1.17c.098-.524.062-.527.369-1.037 3.227-5.354.756-6.972 4.121-12.467l1.901-.127c3.6.285 4.059.092 6.597-2.609l.436.889z" fill="#38130a"/><path d="m490.105 174.424c4.387-3.801 6.335-8.124 10.75-11.637 1.761-1.401 3.525-.914 5.708-.619-3.859 2.699-6.39 4.579-9.424 8.26l-2.997 2.963c-2.771 3.092-5.175 6.571-7.61 9.277l-.292-.412c-1.312-.851-2.894-2.682-4.016-3.865l-.952-.169c1.55-1.915 3.669-5.148 5.14-7.25.938.173 1.105.118 1.949.51.825 1.207 1.139 1.591 1.744 2.942z" fill="#d8682b"/><path d="m486.412 170.972c.938.173 1.105.118 1.949.51.825 1.207 1.139 1.591 1.744 2.942-3.03 3.161-3.85 3.484-3.865 7.832-1.312-.851-2.894-2.682-4.016-3.865l-.952-.169c1.55-1.915 3.669-5.148 5.14-7.25z" fill="#111011"/><path d="m486.412 170.972c.938.173 1.105.118 1.949.51-2.084 2.269-4.13 4.572-6.137 6.909l-.952-.169c1.55-1.915 3.669-5.148 5.14-7.25z" fill="#8b3d1e"/><path d="m486.746 157.642c2.705 1.22 2.888.673 5.729.494l-.008.592.67.124c1.937.373 2.605.314 3.996 1.544-2.454.266-10.924 1.913-12.281-.357l1.26-1.873z" fill="#d8682b"/><path d="m479.567 167.258c1.957-3.398 4.425-4.755 8.274-4.158-.307.577-4.062 2.337-5.291 3.251-1.253.481-1.644.686-2.983.907z" fill="#ae5627"/><path d="m495.813 162.477c.369.301.154.076.445.822-1.638 2.045-5.014 3.866-7.335 5.024-.316-.228-.112-.041-.321-.765 2.158-2.637 4.073-3.84 7.211-5.081z" fill="#d8682b"/><path d="m483.599 452.768c.252-1.995.208-3.064 1.197-4.751l.524.188.012 1.416c1.206 5.267 1.466 6.637.379 11.93l-.915 1.109c.718 5.032 3.003 27.315 1.389 30.974.134 3.757.764 3.013 1.584 5.934-.771 1.942-1.06 2.357-1.116 4.389l-1.144.796c.092 7.596 4.022 24.792.884 30.355l-.371 1.212.459-.039c.583-.655 9.419-20.319 10.891-23.237l1.346-.444c-2.734 4.652-11.621 28.222-14.381 29.179-1.784-2.705-3.867-39.982-1.841-42.287l.958-.268.501-1.266c.845-6.05.564-8.747.316-14.383-.283-6.454-4.124-29.306-2.374-33.866 1.14.703 1.086 1.477 1.702 3.059z" fill="#ebeae8"/><path d="m498.718 512.6c-2.734 4.652-11.621 28.222-14.381 29.179-1.784-2.705-3.867-39.982-1.841-42.287 1.349 6.332 1.153 21.954 2.058 30.4.268 3.088.473 3.537 1.468 6.428l.459-.039c.583-.655 9.419-20.319 10.891-23.237z" fill="#ebeae8"/><path d="m483.955 497.958c.38 9.992.751 19.491 1.576 29.469l-.977 2.465c-.905-8.446-.709-24.068-2.058-30.4l.958-.268z" fill="#2f2d2f"/><path d="m483.599 452.768c.252-1.995.208-3.064 1.197-4.751l.524.188.012 1.416c1.206 5.267 1.466 6.637.379 11.93l-.915 1.109c-.568-3.121-1.433-6.798-1.197-9.892z" fill="#ebeae8"/><path d="m483.599 452.768c.252-1.995.208-3.064 1.197-4.751l.524.188.012 1.416-.646.443c-.355 2.561-.397 9.391 1.025 11.487l-.915 1.109c-.568-3.121-1.433-6.798-1.197-9.892z" fill="#a2a09c"/><path d="m485.509 504.753c-.093-2.625-.671-9.14.676-11.119.134 3.757.764 3.013 1.584 5.934-.771 1.942-1.06 2.357-1.116 4.389z" fill="#2f2d2f"/><path d="m484.554 529.892.977-2.465c-.028 3.484-.008 4.305.862 7.681l-.371 1.212c-.995-2.891-1.2-3.34-1.468-6.428z" fill="#848485"/><path d="m568.04 167.023 6.649-.027c2.769 6.034 10.56 21.359 11.387 28.374.068.583-.967 1.072-1.645 1.556l-4.888 2.818c-9.355-16.398-10.499-12.623-11.503-32.721z" fill="#fb8337"/><path d="m518.859 311.281 7.029-.264c-2.837 5.999-10.411 22.602-13.885 27.18l-.591-.404c-2.584-8.508-5.306-17.13-7.497-25.735 4.702-.515 10.165-.595 14.944-.777z" fill="#fb8337"/><path d="m450.348 164.687c3.827 1.386 4.685 4.869 6.029 8.322-1.999 3.584-11.742 22.125-14.596 23.522-2.331-.94-5.214-1.792-7.641-2.579 5.391-11.308 9.622-18.688 16.208-29.265z" fill="#fb8337"/><path d="m536.429 300.681c2.588-1.253 6.105-2.078 8.64-.251l-.782 1.673c-6.926 12.267-22.008 33.092-31.834 43.074 3.812-7.221 7.564-14.472 11.256-21.754 2.897-5.757 7.535-15.8 11.46-20.646z" fill="#fb8337"/><path d="m536.429 300.681c2.588-1.253 6.105-2.078 8.64-.251l-.782 1.673c-2.334.884-2.954 1.3-5.081 2.418l.295-.078-.181-.994c-1.915-.647-2.096-.621-4.151-.672z" fill="#8b3d1e"/><path d="m536.429 300.681c2.588-1.253 6.105-2.078 8.64-.251-3.426.989-5.148.952-8.64.251z" fill="#fd9448"/><path d="m419.02 677.828c-7.539 8.726-28.059 29.619-36.999 36.879-4.991-.514-8.517-.719-13.534-.78l.002-.927 11.773-.37c1.525-1.67 4.391-6.793 5.134-7.303 5.393-3.7 7.599-5.116 11.764-10.212 1.879-7.832 2.18-10.826 10.809-10.615l.098.774-.881 1.64c.662-.146 9.808-7.762 11.834-9.086z" fill="#ebeae8"/><path d="m397.16 695.115c1.879-7.832 2.18-10.826 10.809-10.615-4.037 3.063-7.755 8.36-10.809 10.615z" fill="#626063"/><path d="m595.338 231.965.698-1.484.877-.179c3.34 5.035 13.996 22.772 17.424 26.127 1.159 1.685 2.278 3.396 3.358 5.132-.055.506.827 10.012.87 12.339-8.456-11.498-15.912-27.302-23.138-40.076z" fill="#fb8337"/><path d="m477.178 160.013c3.151-6.294 11.081-21.015 15.469-26.248.428 2.804.694 2.817 2.977 4.834l-1.187 2.897c-.482 1.034-1.026 2.317-1.589 3.281l.57.314c-1.695 4.351-5.111 8.722-6.672 12.551l-.634.524-.436-.889c-2.538 2.701-2.997 2.894-6.597 2.609z" fill="#fb8337"/><path d="m479.079 159.886c6.1-4.8 8.819-17.106 15.358-18.39-.482 1.034-1.026 2.317-1.589 3.281l.57.314c-1.695 4.351-5.111 8.722-6.672 12.551l-.634.524-.436-.889c-2.538 2.701-2.997 2.894-6.597 2.609z" fill="#d8682b"/><path d="m485.676 157.277c2.12-3.459 5.04-9.675 7.172-12.5l.57.314c-1.695 4.351-5.111 8.722-6.672 12.551l-.634.524z" fill="#ae5627"/><path d="m520.52 348.953c9.556-7.033 24.636-15.21 35.023-21.516l.188.718c-1.474 1.089-2.141 1.35-2.713 3.083.168.427.333.948.568 1.316-1.065.728-.775.392-1.501 1.402l.439.609-.604.225c-9.629 4.828-20.341 11.574-29.807 17.142-1.568-1.104-1.067-.583-1.593-2.979z" fill="#020202"/><path d="m432.031 239.746c5.074 10.888 10.398 20.244 17.541 29.867 2.293 3.089 8.231 11.948 6.515 15.672l-1.512-.31-.232-2.662c-6.211-6.353-14.364-25.608-21.042-33.016-.346-.383-3.756-2.093-4.431-2.431 1.01-2.362 2.113-4.767 3.161-7.12z" fill="#fb8337"/><path d="m541.429 451.471c-5.813 22.695-16.608 37.803-27.308 58.061l-.8-.603c8.763-19.444 18.137-38.606 28.108-57.458z" fill="#ebeae8"/><path d="m473.135 314.22c2.875 3.687 4.516 6.067 9.253 7.352l4.568 5.682c-.272 1.879-.674 4.141-.706 6.007-2.286-2.091-8.946-5.236-12.135-7.003-1.715-3.271-2.765-4.918-2.552-8.685.933-1.533.982-1.653 1.572-3.353z" fill="#fb8337"/><path d="m436.186 223.499c6.155-8.462 10.571-17.636 15.535-26.791 4.181-7.712 9.23-15.275 12.206-23.566 1.621-4.514 1.519-6.253 5.541-9.771l.678-.096c.653 2.228-14.393 30.219-16.972 34.942-5.117 9.256-10.463 18.384-16.032 27.376z" fill="#ae5627"/><path d="m414.442 289.067c4.633.059 13.862.32 17.96-.352l1.126 2.613c3.787-.368 8.432.006 12.309.199l.52 1.489c-13.499-.06-21.757.339-35.836-.619.944-.267 1.703-.708 2.591-1.145-4.091-.792-5.217-.859-9.234-.713l.874-1.617c3.697.232 6.015.381 9.69.145z" fill="#fb7a2e"/><path d="m414.442 289.067c4.633.059 13.862.32 17.96-.352l1.126 2.613c-5.306-.196-15.39-.548-20.416-.076-4.091-.792-5.217-.859-9.234-.713l.874-1.617c3.697.232 6.015.381 9.69.145z" fill="#38130a"/><path d="m487.819 133.126c-.731 2.457-1.401 4.659-3.061 6.684-1.859 4.393-10.035 19.863-13.691 21.742l-.728-.347c-.221-1.912 5.574-13.315 6.815-15.676l2.189-5.404c1.326-1.652.915-1.128 1.237-3.528 3.364-1.054 4.598-.949 7.239-3.471z" fill="#d8682b"/><path d="m487.819 133.126c-.731 2.457-1.401 4.659-3.061 6.684-4.564 2.172-3.685 6.51-7.604 5.719l2.189-5.404c1.326-1.652.915-1.128 1.237-3.528 3.364-1.054 4.598-.949 7.239-3.471z" fill="#fd9448"/><path d="m538.038 491.728c-.184 3.822-.35 11.657-.788 15.181-.242 2.691-.208 5.423-2.006 7.551-1.461 1.727-3.747 6.477-6.387 5.324-1.168-3.509 1.941-10.297 3.329-13.739 2.08-4.845 4.021-9.363 5.852-14.317z" fill="#ebeae8"/><path d="m628.861 697.656c7.824 4.856 11.369 10.678 17.204 17.777 9.497-.163 19.468-.678 28.998-1.019 2.665 2.61 9.134 10.399 11.95 11.583l-1.106 1.091c-3.91-3.984-8.663-9.153-13.306-12.035-10.953 2.689-16.319 2.443-27.43 1.916-4.538-4.529-11.245-13.66-16.31-19.313z" fill="#ebeae8"/><path d="m687.013 725.997c1.421-.127 1.346-.09 2.535.974 3.493 3.128 6.343 6.894 9.609 10.283 3.673 3.81 11.942 8.836 12.763 14.252l-.307 1.056c-2.375-.109-4.964-4.073-6.574-5.879-5.967-6.691-13.71-12.509-19.132-19.595z" fill="#ebeae8"/><path d="m620.723 623.688c10.498-.191 7.612 5.017 13.079 11.625 4.089 4.942 12.88 9.433 15.273 15.55l-.493.427-1.408-.915c-2.431-2.348-14.391-13.992-16.558-15.384-1.41.408-.871.457-2.173.132-1.485-2.012-2.217-5.77-2.967-8.395-1.981-.296-5.708-.619-7.155-1.839l.408-.697z" fill="#ebeae8"/><path d="m535.627 450.903c-1.62 5.56-4.711 11.669-7.422 16.836-11.218 21.385-21.465 43.214-31.886 64.992-1.077 2.252-2.278 4.924-3.098 7.262l-1.67.019c8.203-15.942 16.032-32.072 23.482-48.38 6.093-13.085 12.963-28.571 20.594-40.729z" fill="#a2a09c"/><path d="m463.704 161.367c.224-.621.458-1.239.702-1.852 3.231-8.262 7.81-19.268 16.174-22.918-.322 2.4.089 1.876-1.237 3.528-5.369 4.87-7.851 15.584-12.88 20.584-.346.344-2.215.581-2.759.658z" fill="#fb8337"/><path d="m447.941 278.841c1.696 1.055 6.324 7.598 7.805 9.602-3.167.244-6.712.1-9.927.05l-8.342.066c3.542-3.18 7.031-6.42 10.464-9.718z" fill="#fb8337"/><path d="m536.614 321.461c4.618-7.532 9.462-19.058 19.226-19.27-.863 1.58-1.926 3.976-3.294 4.983-.13-1.535 1.189-3.777 1.841-5.351-4.758 6.195-10.469 15.223-14.83 20.47z" fill="#fb8337"/><path d="m517.975 724.689c3.51 1.492 3.224 5.798 7.456 7.708 1.471-.198 1.441-.307 2.785.239 1.407 1.616 1.086.699.983 2.851 1.229 1.473 5.973 4.599 7.994 6.251 1.441 4.214 1.763 3.308 3.994 6.445l.479.684c-3.568-1.599-25.285-20.419-25.726-23.258z" fill="url(#c)"/><path d="m551.92 334.79.872 1.29c-4.932 2.92-10.631 6.086-15.392 9.115-3.667 1.917-23.491 13.888-25.205 14.07 1.137-1.568 7.8-5.662 9.918-7.333 9.466-5.568 20.178-12.314 29.807-17.142z" fill="#ebeae8" fill-opacity=".011765"/><path d="m539.673 480.844.604.904c-.215 7.622-7.161 18.178-11.183 24.674l-.442-.473c-.489-5.605 7.952-19.18 11.021-25.105z" fill="#ebeae8"/><path d="m490.455 553.257c8.01-10.933 16.04-31.69 22.866-44.328l.8.603c-9.208 18.512-15.934 32.394-23.488 51.669z" fill="#ebeae8"/><path d="m505.204 481.979c.001 2.952-15.041 31.187-17.516 35.162-.879-4.475 14.015-30.55 17.516-35.162z" fill="#ebeae8"/><path d="m368.898 655.201c4.947-6.536 12.559-12.428 18.941-17.648l.628.894c-.479 4.928-15.162 14.52-19.569 16.754z" fill="#ebeae8"/><path d="m462.597 301.145c1.87-.845 2.972-1.71 4.799-1.548.669.704 2.663 3.096 3.099 3.424l-4.158-.008c-5.111.025-10.23.247-15.334.202-3.229-.028-5.654.338-8.127-1.835 3.928 1.285 8.694.584 12.559-.683z" fill="#644130"/><path d="m538.801 470.884c.277 4.915-11.596 26.999-14.563 32.237-.413-3.785 11.991-27.4 14.563-32.237z" fill="#ebeae8"/><path d="m427.183 239.49c.325 4.31-13.014 25.455-15.857 30.139-.21-3.401 13.201-26.222 15.857-30.139z" fill="#ebeae8" fill-opacity=".043137"/><path d="m458.687 163.637c2.079-.189 3.92-.7 5.333.985-.006 1.692-2.365 5.285-3.36 7.191l-.285.419-.737-.08c-1.711-2.345-3.853-4.843-2.647-7.839z" fill="#d8682b"/><path d="m519.752 511.398c.068 2.301-16.034 35.81-18.412 40.187-.454-2.523 16.156-36.813 18.412-40.187z" fill="#626063"/><path d="m487.769 499.568c3.019-6.049 9.182-18.114 13.489-23.023-1.251 1.194.616-.743-.473 1.326-2.928 5.562-10.424 21.7-14.132 26.086.056-2.032.345-2.447 1.116-4.389z" fill="#ebeae8"/><path d="m512.781 111.439c5.607 3.678 7.154 7.824 10.838 13.246 2.629 3.871 5.915 7.839 8.207 11.857-3.633-.158-2.609-3.226-5.257-4.508z" fill="#ebeae8" fill-opacity=".011765"/><path d="m536.614 321.461 2.943.832c-2.618 3.376-11.643 15.602-14.327 17.828 1.643-4.686 8.409-14.266 11.384-18.66z" fill="#fd9448"/><path d="m558.301 190.389c1.059-2.382 1.473-3.501 3.001-5.658l.768-.126.351 1.379.475 1.639c.332.114 1.086.403 1.396.445l-.021.937c-.02 1.207.038 1.526.286 2.743-.467 1.94-1.73 2.664-3.288 4.01l-1.146-.43c1.178-1.479 1.594-1.447 1.633-2.948l-1.269-.387c-1.125-.207-.959-.22-2.029-.709z" fill="#240e07"/><path d="m560.487 191.993c.779-1.67 2.326-2.924 3.805-3.925l-.021.937c-.02 1.207.038 1.526.286 2.743-.467 1.94-1.73 2.664-3.288 4.01l-1.146-.43c1.178-1.479 1.594-1.447 1.633-2.948z" fill="#d8682b"/><path d="m558.301 190.389c1.059-2.382 1.473-3.501 3.001-5.658l.768-.126.351 1.379c-1.103 1.548-2.383 3.853-4.12 4.405z" fill="#644130"/><path d="m570.881 322.997c-1.284 3.007-14.869 11.67-18.357 11.568l-.439-.609c.726-1.01.436-.674 1.501-1.402 1.554-1.45 14.936-8.469 17.295-9.557z" fill="#ebeae8" fill-opacity=".011765"/><path d="m483.681 341.08c-4.099-1.675-21.817-9.404-23.503-12.089l.777-.302c3.114 2.381 5.273 1.895 8.794 3.652 3.971 2.252 10.65 5.864 13.932 8.739z" fill="#ebeae8" fill-opacity=".015686"/><path d="m456.886 178.414c-.093 4.264-7.272 17.182-10.439 20.508-.816-3.891 8.141-16.879 10.439-20.508z" fill="#d8682b"/><path d="m344.851 712.009c3.877-.065 8.687.311 12.644.504l3.711 1.044c-4.654 1.313-10.056-.483-14.589.687-3.659.945-7.789 4.682-10.82 7.106 2.407-2.922 6.294-6.586 9.054-9.341z" fill="#c1beba"/><path d="m461.912 647.072.229.132c-1.597 3.065-16.342 14.914-19.454 17.293l-.215-.13-.001-.582c5.692-6.241 12.66-11.683 19.441-16.713z" fill="#ebeae8"/><path d="m433.974 238.755c4.339 2.179 10.028 15.902 11.836 20.419-3.336-2.486-9.745-16.234-11.836-20.419z" fill="#d8682b"/><path d="m491.92 572.74c.996 1.506 1.394 5.703 1.706 7.589.545 3.296-3.354 8.561-5.537 10.785-.174-2.575 2.364-4.145 2.043-9.48l-.049-.707.435-.312c.621 1.13.305 1.053 1.158 1.515.772-3.22-.756-5.154.244-9.39z" fill="#c1beba"/><path d="m599.907 300.658c1.245-.493 2.192-1.123 3.323-.972-3.733 3.336-11.282 7.781-15.848 10.401l-.689-1.882c4.458-2.645 8.635-5.095 13.214-7.547z" fill="#ebeae8" fill-opacity=".011765"/><path d="m402.058 632.159c5.299-.121 14.078-.261 19.2.602l-.098.44-1.535.297c-3.697-.063-16.625.748-18.932.237l-.168-.587z" fill="#a2a09c"/><path d="m571.447 320.625c-.133.692-.26 1.757-.566 2.372-2.359 1.088-15.741 8.107-17.295 9.557-.235-.368-.4-.889-.568-1.316.572-1.733 1.239-1.994 2.713-3.083 5.448.362 11.076-4.639 15.716-7.53z" fill="#111011" fill-opacity=".972549"/><path d="m746.916 639.388c.72.253 1.29.624 1.971.998l.013.99c-1.577 2.615-2.386 3.291-5.207 4.517l-.355-.34 1.116-1.604c-.796-.171-5.04 1.672-6.173 2.107 3.208-3.605 4.382-4.588 8.635-6.668z" fill="#a0887b"/><path d="m562.349 797.628c3.308.65 4.236 2.885 5.051 5.918-.606 1.231-.334.806-1.368 1.773-.11.774-.255 1.476-.404 2.243l-.751.221c-1.812-1.945-2.208-7.466-2.528-10.155z" fill="#d8682b"/><path d="m482.019 594.545c.175.187.13.497.173.751-5.72 5.538-11.719 10.782-17.973 15.71l-.412-.249c2.43-3.839 14.331-13.294 18.212-16.212z" fill="#c1beba"/><path d="m513.675 292.565c2.608-.114 3.392-.405 5.479.894.852 1.423.741.822.797 2.345l-1.326.23c-2.138.06-7.301.528-8.437-1.525 1.231-1.454 1.421-1.159 3.487-1.944z" fill="#8b3d1e"/><path d="m546.078 684.592c-.077 1.473.16 2.261-.562 3.229-.98-2.495-1.765-11.6-.972-14.047.991 1.393.843 1.893 1.172 3.693.972.396 1.169.416 2.042.978-.337 2.056-.389 2.584-.364 4.667z" fill="#c1beba"/><path d="m545.716 677.467c.972.396 1.169.416 2.042.978-.337 2.056-.389 2.584-.364 4.667l-1.316 1.48c-.214-2.539-.305-4.598-.362-7.125z" fill="#2f2d2f"/><path d="m451.096 218.498c.528 2.264-7.066 13.469-8.764 15.654-1.186-4.525 5.986-12.368 8.764-15.654z" fill="#8b3d1e"/><path d="m472.688 173.517.96 1.17c-3.475 6.422-6.169 10.758-11.097 16.059 2.744-6.219 6.418-11.578 10.137-17.229z" fill="#ae5627"/><path d="m615.157 181.362 1.708.189c-3.143 4.909-6.943 12.853-10.627 18.798 1.431-5.528 6.103-13.911 8.919-18.987z" fill="#ebeae8" fill-opacity=".015686"/><path d="m614.202 680.386c4.71 3.461 12.758 12.31 15.695 17.431-6.188-5.523-10.792-11.712-16.404-16.893z" fill="#c1beba"/><path d="m486.198 130.319c4.653-5.042 8.168-11.104 12.209-15.329-3.075 5.6-6.409 11.041-9.703 16.515-1.142-.021-1.363-.449-2.506-1.186z" fill="#ebeae8" fill-opacity=".019608"/><path d="m387.839 637.553c2.361-4.117 9.616-9.128 13.544-11.754-2.173 2.737-3.032 3.812-5.539 6.12-1.502 1.384-6.524 5.355-7.377 6.528z" fill="#ebeae8"/><path d="m552.792 336.08.922-.002c-2.192 3.362-8.349 4.883-9.624 7.655l-.608.764-.974-.801c-2.566.687-3.202 1.927-4.851 1.744l-.257-.245c4.761-3.029 10.46-6.195 15.392-9.115z" fill="#020202" fill-opacity=".980392"/><path d="m568.43 205.531c.329-1.612 1.174-2.654 2.661-3.324l.257.633c.988 2.832 2.001 3.692 2.088 6.774l-.566.522c-1.988-.852-2.965-2.758-4.44-4.605z" fill="#240e07"/><path d="m568.43 205.531c.329-1.612 1.174-2.654 2.661-3.324l.257.633c-1.144 1.808-1.029 1.806-2.918 2.691z" fill="#8b3d1e"/><path d="m503.188 676.416c2.147 1.953 1.832 14.241 1.73 17.286l-.507-.397c-1.709-3.414-1.354-12.848-1.223-16.889z" fill="#ebeae8"/><path d="m615.157 181.362c1.548-4.144 4.196-8.61 7.563-11.508-.783 2.037-4.135 10.716-5.855 11.697z" fill="#fb8337"/><path d="m511.474 567.875.632.734c-3.166 6.905-3.96 10.371-9.361 15.747 2.246-5.199 5.927-11.443 8.729-16.481z" fill="#ebeae8"/><path d="m443.822 201.196c.566.272.213.06.928.817-.516 3.274-4.697 8.326-6.825 11.155l-.578.015c.441-3.042 4.746-9.314 6.475-11.987z" fill="#d8682b"/><path d="m550.35 695.973c4.44 1.527 8.655 6.197 11.014 10.177-4.047-2.01-8.423-6.523-11.014-10.177z" fill="#c1beba"/><path d="m427.544 669.361c.639.172.293.01.944.648-.852 2.62-5.447 5.73-7.708 7.454l-.618-.107-.049-.8c1.683-2.636 4.958-5.292 7.431-7.195z" fill="#ebeae8"/><path d="m533.293 521.418c1.638 1.661-.606 13.771-1.102 16.237-.187-.213-.375-.426-.563-.64.182-3.915.125-12.458 1.665-15.597z" fill="#ebeae8"/><path d="m553.714 336.078c-.585 5.946-4.608 6.25-9.624 7.655 1.275-2.772 7.432-4.293 9.624-7.655z" fill="#ebeae8" fill-opacity=".007843"/><path d="m442.057 300.508c5.142-1.236 8.173-.501 13.378.189-3.865 1.267-8.631 1.968-12.559.683z" fill="#f4c8ab" fill-opacity=".027451"/><path d="m445.837 291.527c4.564-.324 13.301-1.435 16.975 1.084-2.365.284-2.966.108-5.38-.236-4.096-1.371-4.52-.828-8.556.885l-2.519-.244z" fill="#c1beba"/><path d="m491.551 540.012 1.67-.019c-1.189 2.933-2.468 5.83-3.835 8.684-.645-2.567-1.378-3.64-.657-5.861 1.512-1.032 1.756-1.308 2.822-2.804z" fill="#ebeae8"/><path d="m436.186 223.499.956 2.094c-.898 1.979-1.675 4.205-3.718 5.057l-.683-.523c-.167-3.199 1.459-4.435 3.445-6.628z" fill="#d8682b"/><path d="m597.619 299.86 2.288.798c-4.579 2.452-8.756 4.902-13.214 7.547l-.151-.673c.522-.845 9.139-6.274 11.077-7.672z" fill="#111011" fill-opacity=".937255"/><path d="m500.265 552.33c.522 2.765-4.996 13.362-6.49 16.306-.527-2.971 5.023-13.353 6.49-16.306z" fill="#2f2d2f"/><path d="m479.619 291.185c2.469-.262 8.547-.433 10.924.001l-.174.671c-1.562.455-3.392 1.205-4.946 1.795-2.653-.824-3.361-1.137-5.804-2.467z" fill="#fb7a2e"/><path d="m512.165 433.36c2.382 2.442-3.436 9.087-5.072 11.105l-.162-.134c.028-1.878 4.109-8.968 5.234-10.971z" fill="#ebeae8"/><path d="m437.505 231.894c2.645 1.836 5.001 10.071 5.938 13.183-3.05-3.456-5.076-8.675-5.938-13.183z" fill="#8b3d1e"/><path d="m471.563 317.573c.806-4.736-4.892-9.846-4.804-13.132l.12.792.242-.313 6.014 9.3c-.59 1.7-.639 1.82-1.572 3.353z" fill="#fd9448" fill-opacity=".945098"/><path d="m521.806 463.367c.453 2.76-4.675 13.774-6.626 16.123.476-3.428 4.98-12.629 6.626-16.123z" fill="#626063"/><path d="m438.305 627.076c2.237-.25 3.989-.634 5.838.712-1.306.945-1.721.66-3.604.831-3.253.173-6.581.272-9.843.404 2.436-.713 5.129-1.327 7.609-1.947z" fill="#ebeae8"/><path d="m388.534 652.895.624.121c-.166 1.053-6.92 6.063-8.313 7.181l-.464.072-.167-.658c2.161-3.298 4.876-5.02 8.32-6.716z" fill="#ebeae8"/><path d="m547.394 683.112c-.025-2.083.027-2.611.364-4.667 2.403 5.183-.353 6.559 2.55 12.848-2.855-1.001-2.753-5.594-2.914-8.181z" fill="#a2a09c"/><path d="m518.348 578.393c.406 3.226-3.807 7.082-5.928 9.32l-.147-1.093c1.478-3.191 3.73-5.642 6.075-8.227z" fill="#ebeae8"/><path d="m452.575 209.657c-2.108 3.596-3.315 5.729-6.676 8.351.773-2.648 3.979-6.499 5.742-8.716z" fill="#240e07"/><path d="m432.67 632.738c2.904-.29 7.711-1.405 9.154 1.56-2.333.185-7.941.429-9.154-1.56z" fill="#c1beba"/><path d="m576.872 246.076 1.447 1.121c-2.26 3.298-4.144 5.204-7.123 7.755 1.836-3.754 2.932-5.798 5.676-8.876z" fill="#ae5627"/><path d="m603.158 623.653c3.496-.472 8.111-.076 11.505.799-3.12.947-8.954 1.552-11.505-.799z" fill="#c1beba"/><path d="m432.804 218.692c1.413 1.063 1.033.386 1.282 2.036-.661 1.852-2.302 3.241-3.702 4.691l-.467-.118c-.413-2.15 1.654-4.773 2.887-6.609z" fill="#2f2d2f"/><path d="m554.604 694.818c3.89.509 6.204 3.466 8.465 6.359-4.069-1.248-5.62-3.312-8.465-6.359z" fill="#ebeae8"/><path d="m735.873 750.225 1.289.115-.177.608c-2.201 1.182-3.268 1.332-5.687 1.927-1.488-.333-.992-.069-2.164-.996l.327-.605c2.293-.864 3.98-.85 6.412-1.049z" fill="#ebeae8"/><path d="m720.145 750.602.325.028.373.48c-1.787 1.697-4.767 2.532-7.186 2.782l-.905-1.055c1.283-1.459 5.204-1.83 7.393-2.235z" fill="#ebeae8"/><path d="m502.352 587.372.484.555c-.282 2.749-2.535 4.977-4.349 6.984-.578-.414-.301-.104-.52-1.134 1.003-2.533 2.661-4.27 4.385-6.405z" fill="#ebeae8"/><path d="m473.586 290.944c1.294.031 1.23.027 2.448.474-.185 1.429-1.206 1.774-2.671 3.031-1.895-.739-1.235-.141-2.293-1.55.705-1.628.327-1.079 2.516-1.955z" fill="#fb7a2e"/><path d="m535.525 622.615c1.149.328 1.065.34 1.922 1.196.415 1.66-.313 2.692-1.027 4.319-.811-.712-1.045-1.14-1.719-2.022-.165-2.167-.215-1.368.824-3.493z" fill="#ebeae8"/><path d="m558.679 276.279c.586.521.288.164.706 1.204-.648 2.247-1.937 3.371-3.493 5.157l-.572-.576c.356-1.689 2.314-4.236 3.359-5.785z" fill="#2f2d2f"/><path d="m451.641 209.292c1.095-2.13 1.878-4.194 3.679-5.685l.532.144c-.323 1.944-2.002 4.493-3.277 5.906z" fill="#8b3d1e"/><path d="m613.493 680.924c-2.781-2.389-4.013-3.727-5.902-6.867 2.426 1.626 4.191 4.087 6.611 6.329z" fill="#848485"/><path d="m494.43 439.395c1.314 1.354-2.01 6.956-2.828 8.551-.359-.296-.132-.064-.416-.881.796-2.948 1.908-4.946 3.244-7.67z" fill="#2f2d2f"/><path d="m357.495 712.513c3.042-.102 8.286-.503 10.994.487l-.002.927c-2.072-.694-5.116-.751-7.281-.37z" fill="#2f2d2f"/><path d="m415.66 626.724c3-.059 6.137-.107 9.012.716-3.3 1.17-6.113 1.253-9.012-.716z" fill="#ebeae8"/><path d="m460.955 328.689c1.782.453 3.721 1.082 5.513 1.165 1.367.482 2.764.948 4.108 1.482l-.827 1.005c-3.521-1.757-5.68-1.271-8.794-3.652z" fill="#2f2d2f" fill-opacity=".964706"/><path d="m583.319 239.77c-1.485 2.951-2.548 5.029-5 7.427l-1.447-1.121c2.598-1.672 4.409-3.976 6.447-6.306z" fill="#452f25"/><path d="m563.37 266.028.33.702c-.706 2.663-1.775 4.295-3.097 6.697-1.625-1.426 1.81-5.973 2.767-7.399z" fill="#ae5627"/><path d="m497.372 513.044c1.055-2.089 2.924-6.296 4.53-7.554l-.952.862.48-.574-.079 1.63.055-.085-2.688 5.277z" fill="#848485"/><path d="m496.75 599.384.495.665c-.669 1.809-2.009 2.877-3.384 4.243-.592-.538-.32-.179-.65-1.184.763-1.726 2.053-2.506 3.539-3.724z" fill="#ebeae8"/><path d="m443.725 220.347c.704 2.589-1.192 4.736-2.742 6.597-.41-2.733 1.087-4.307 2.742-6.597z" fill="#ae5627"/><path d="m567.154 800.359c.695.272 1.366.603 2.005.989 1.82 1.094 2.096 2.465 2.604 4.383-2.248-.834-3.234-3.193-4.609-5.372z" fill="#ae5627"/><path d="m395.127 289.838c.751 2.611.608 5.398-.406 7.919-1.24-2.65-.435-5.27.406-7.919z" fill="#8b3d1e"/><path d="m580.168 819.844c2.835.415 4.825 2.824 6.809 4.82-2.928-.513-4.777-2.755-6.809-4.82z" fill="#c1beba"/><path d="m555.551 171.788c1.524 1.721 1.47 1.628 2.279 3.778l-.507-.061c-1.048-.613-1.927-.93-3.042-1.397l-.255-.711z" fill="#644130"/><path d="m493.331 644.708c.271.151.705.587.958.817-.304 1.512-1.954 2.95-3.085 4.163l-.635.017c.332-1.801 1.698-3.44 2.762-4.997z" fill="#a2a09c"/><path d="m483.536 431.289c.792 1.985-.375 5.105-.94 7.28-.901-2.782-.156-4.592.94-7.28z" fill="#2f2d2f"/><path d="m446.188 233.365.548.793c.007 2.142-.368 2.501-1.418 4.476l-.501-.866c-.076-2.066.353-2.488 1.371-4.403z" fill="#8b3d1e"/><path d="m452.642 628.932.154.898c-.585 1.655-1.809 2.159-3.328 3.166.08-1.841 1.837-2.898 3.174-4.064z" fill="#4c4a4d"/><path d="m514.761 561.49c-.906 3.001-1.298 4.254-2.655 7.119l-.632-.734c1.153-2.535 1.836-3.957 3.287-6.385z" fill="#626063"/><path d="m539.244 432.821c.653 2.023-.447 3.137-1.515 4.821-.439-1.937.53-3.086 1.515-4.821z" fill="#4c4a4d"/><path d="m422.76 633.236c2.52-.301 2.977-.472 5.386.054-2.272 1.087-3.207.844-5.386-.054z" fill="#a2a09c"/><path d="m497.19 433.264.492.422c.34 1.603-.041 1.531-.954 3.425l-.267-.261c-.345-1.539.101-1.813.729-3.586z" fill="#626063"/><path d="m503.989 735.273c1.593-1.731 2.705-3.227 4.773-4.308 2.081-.072 1.368-.108 3.423 1.146-6.775 5.397-12.535 10.772-18.825 16.743-4.469 4.363-9.718 9.684-14.408 13.7-2.776 2.378-8.594 4.329-11.524 7.519.077 1.917.192 3.913.172 5.825 1.178 6.121 1.666 7.365 2.035 14.096.366 6.662-.757 14.404.079 20.73.145 1.097 4.453 6.224 5.448 7.422 4.009 3.792 14.183 13.066 16.704 17.263 1.743 2.795 2.874 4.27 2.434 7.519-.855 6.69-3.66 11.357-3.266 16.414-.349 4.446-2.274 29.825-.839 32.02l.681.074.348.457c-.261 2.941-.721 5.017-1.828 7.75l-.537-.264c-.917-2.187-1.841-5.816-1.563-8.17 1.066-9.02.718-17.865.51-26.93l-1.179.674c-2.115 5.728-2.314 15.06-1.373 20.952-1.889 2.449-1.704 2.406-1.992 5.245-.518 5.429-1.287 10.831-2.306 16.189l-1.453-.265c-.372-12.741.393-25.729.095-38.494-.208-8.886.171-17.595.83-26.454-9.919-9.21-15.072-14.469-23.672-24.812l-1.187-3.679c-.278-4.346 2.374-8.325 4.555-11.854l-.129-10.791c.578-2.669.622-2.816 2.844-4.113l.106-.376.237-1.418c.474-3.968-.538-13.22-.605-18.001l1.093-.146c10.737-7.382 24.316-21.168 34.35-30.377l3.571-3.183zm-16.842 111.859.651.377c.245 2.748.071 5.038.262 7.545.45-2.681.467-8.444.554-11.399.457-2.008.408-2.125.113-4.203l-.863.23.07 4.035c-.266 1.091-.608 2.321-.787 3.415z" fill="#020202"/><path d="m487.934 843.717.68-.062c-.087 2.955-.104 8.718-.554 11.399-.191-2.507-.017-4.797-.262-7.545l-.651-.377c.179-1.094.521-2.324.787-3.415z" fill="#a2a09c" fill-opacity=".988235"/><path d="m487.864 839.682.863-.23c.295 2.078.344 2.195-.113 4.203l-.68.062z" fill="#4c4a4d" fill-opacity=".984314"/><path d="m467.428 770.073c-.025-.252-.093-.503-.075-.755.142-1.977 22.031-20.423 25.108-23.667.817 1.566.883 1.468.899 3.203-4.469 4.363-9.718 9.684-14.408 13.7-2.776 2.378-8.594 4.329-11.524 7.519z" fill="#c1beba"/><path d="m467.6 775.898c1.178 6.121 1.666 7.365 2.035 14.096.366 6.662-.757 14.404.079 20.73.145 1.097 4.453 6.224 5.448 7.422.15 1.583.977 2.403 1.917 3.882l-.325.324c-2.491-1.827-5.064-4.867-6.812-7.422-.116-1.266-.748-2.727-1.035-4.231-.651-3.421.149-8.886-1.375-11.757-.049-7.126-.394-16.111.068-23.044z" fill="#4c4a4d"/><path d="m503.989 735.273c1.593-1.731 2.705-3.227 4.773-4.308 2.081-.072 1.368-.108 3.423 1.146-6.775 5.397-12.535 10.772-18.825 16.743-.016-1.735-.082-1.637-.899-3.203 3.518-3.538 7.743-7.071 11.528-10.378z" fill="#c1beba"/><path d="m463.739 812.164c4.376 4.817 8.849 9.681 13.271 14.436 2.711 2.913 10.626 9.734 11.717 12.852l-.863.23c-7.223-10.284-16.693-12.691-24.125-27.518z" fill="#c1beba"/><path d="m464.048 791.495c-.066 2.429-.217 18.518-.716 19.91-3.856-5.973-.649-13.643-.234-19.843z" fill="#f4c8ab"/><path d="m494.3 842.928c-.814-.521-1.264-1.058-1.977-1.749-.223-6.377-7.561-9.073-12.011-16.232 4.342 3.371 7.689 7.619 11.554 10.462 1.743 2.795 2.874 4.27 2.434 7.519z" fill="#c1beba"/><path d="m462.577 767.082 1.093-.146c.846 5.431 1.622 14.532.269 19.839l-.994-.274.237-1.418c.474-3.968-.538-13.22-.605-18.001z" fill="#ebeae8"/><path d="m487.147 847.132.651.377c.245 2.748.071 5.038.262 7.545-.008 2.035.081 7.544-.254 9.225l-1.179.674c-.68-4.542-.509-13.353.52-17.821z" fill="#ebeae8"/><path d="m467.532 798.942c1.524 2.871.724 8.336 1.375 11.757.287 1.504.919 2.965 1.035 4.231-4.165-5.229-4.135-9.702-2.41-15.988z" fill="#f4c8ab"/><path d="m462.945 786.501.994.274.109 4.72-.95.067-.259-4.685z" fill="#6d5e57"/><path d="m463.502 704.173c.81-1.347 10.188-9.711 11.856-11.316.648 1.277.752 1.251.805 2.65l-1.058.741-.295-.302c-5.052 5.987-9.525 9.109-14.717 14.346-7.336 7.398-16.664 16.605-23.088 24.639.488 7.64.831 12.273-.112 19.948-2.609 2.254-5.624 4.989-8.292 7.089-8.872 7.39-17.498 15.116-26.106 22.813-1.727 1.544-3.161 1.344-5.183.375-2.278 2.546-12.254 8.886-15.444 10.721 3.112-4.155 21.856-21.203 26.681-24.775.869-1.354 1.01-2.061 1.565-3.573-6.586-1.407-13.559 15.91-22.205 13.402l-.274-.855c2.586-6.036 28.076-23.491 34.011-33.749-1.064-6.176-1.636-12.426-1.712-18.693 4.655-4.643 11.738-10.114 16.788-14.714 5.186-4.723 10.909-10.305 16.231-14.587 3.316.51 6.444-.593 9.678-1.45l1.428 2.009.814.403-2.945 4.057z" fill="#fb7a2e"/><path d="m463.502 704.173c.81-1.347 10.188-9.711 11.856-11.316.648 1.277.752 1.251.805 2.65l-1.058.741-.295-.302c-5.052 5.987-9.525 9.109-14.717 14.346-7.336 7.398-16.664 16.605-23.088 24.639.488 7.64.831 12.273-.112 19.948-2.609 2.254-5.624 4.989-8.292 7.089-8.872 7.39-17.498 15.116-26.106 22.813-1.727 1.544-3.161 1.344-5.183.375-2.278 2.546-12.254 8.886-15.444 10.721 3.112-4.155 21.856-21.203 26.681-24.775.869-1.354 1.01-2.061 1.565-3.573 4.797-5.806 11.789-10.845 17.497-15.586 2.112-1.753 1.904-4.373 1.981-6.987.087-.216 1.133-1.415 1.317-1.636l.142-11.738c2.714-2.759 14.367-12.218 14.831-14.886.581-1.941 3.741-5.611 5.76-5.913 2.517-1.076 7.457-5.407 10.286-7.431z" fill="#fb8337"/><path d="m463.502 704.173c.81-1.347 10.188-9.711 11.856-11.316.648 1.277.752 1.251.805 2.65l-1.058.741-.295-.302c-5.052 5.987-9.525 9.109-14.717 14.346-7.336 7.398-16.664 16.605-23.088 24.639.488 7.64.831 12.273-.112 19.948-2.609 2.254-5.624 4.989-8.292 7.089.156-4.158 1.575-3.367 3.339-6.881.266-.458 2.014-2.147 2.495-2.634-.067-3.194.316-19.39 2.131-21.41 8.356-9.301 18.154-17.757 26.936-26.87z" fill="#f4c8ab"/><path d="m397.312 785.156c2.245-2.63 11.444-10.415 14.321-12.816 6.444-5.378 13.733-12.248 20.307-17.253-1.764 3.514-3.183 2.723-3.339 6.881-8.872 7.39-17.498 15.116-26.106 22.813-1.727 1.544-3.161 1.344-5.183.375z" fill="#f4c8ab"/><path d="m429.592 744.956c.087-.216 1.133-1.415 1.317-1.636l.624 7.795c-3.577 3.107-20.505 18.542-22.984 19.987.869-1.354 1.01-2.061 1.565-3.573 4.797-5.806 11.789-10.845 17.497-15.586 2.112-1.753 1.904-4.373 1.981-6.987z" fill="#ebeae8"/><path d="m445.882 716.696c-.464 2.668-12.117 12.127-14.831 14.886l-.142 11.738c-.184.221-1.23 1.42-1.317 1.636-1.38-5.362-.233-8.845.653-14.314 4.646-3.919 11.061-10.794 15.637-13.946z" fill="#f4c8ab"/><path d="m464.059 698.892.814.403-2.945 4.057c-2.829 2.024-7.769 6.355-10.286 7.431 3.55-5.561 6.857-8.508 12.417-11.891z" fill="#f4c8ab"/><path d="m456.859 791.09 3.136-.1.129 10.791c-2.181 3.529-4.833 7.508-4.555 11.854l1.187 3.679c-3.647-.681-10.744 6.074-14.127 8.109-1.52 1.417-1.635 1.616-2.833 3.027-2.954 3.48-9.837 7.294-13.879 9.604.217 6.034.184 8.516-1.151 14.353l-1.899 7.431c4.104 6.994 1.576 8.073-1.12 15.046.7 3.974 3.097 10.863-.445 13.689-3.631-1.785-.757-29.164-1.63-34.365l-.642-.286c-1.003 7.013-1.374 16.458-2.365 22.386-1.68 10.054-3.599 10.457-3.899 22.098-4.995-24.285-1.518-39.235-1.903-63.013 3.397-3.778 7.597-6.913 11.374-10.216 10.627-9.297 25.821-20.668 33.25-32.64z" fill="#fb7a2e"/><path d="m424.766 852.407c-3.919-4.726-4.591-10.838 1.151-14.353.217 6.034.184 8.516-1.151 14.353z" fill="#fd9448"/><path d="m455.569 813.635 1.187 3.679c-3.647-.681-10.744 6.074-14.127 8.109 1.828-5.718 7.974-8.739 12.94-11.788z" fill="#e4a777"/><path d="m419.024 838.892c3.382-3.41 5.093-5.053 9.458-7.381-.279 1.05-7.03 6.231-8.446 7.7.183 3.878.946 11.677-.364 14.997l-.642-.286c-.103-5.009-.104-10.02-.006-15.03z" fill="#f4c8ab"/><path d="m452.772 811.943c.428.354.252.106.348.844-6.222 4.671-12.476 9.299-18.762 13.883l-.438-.17c1.557-3.031 15.07-12.029 18.852-14.557z" fill="#f4c8ab"/><path d="m274.149 747.222c10.113-.614 27.692-.253 36.72-2.686.089 2.588.169 7.982.584 10.385-.035 2.716-.023 5.433.037 8.148-5.162.141-10.204.37-15.373.428-5.57.063-12.384-.534-17.803.068-8.092 7.505-30.064 31.649-39.456 33.725l-1.296-.318c-2.315-4.057 4.638-13.179 7.046-16.801-5.58 4.988-10.946 9.943-17.059 14.274l-.887-.143-.472.633.649-.083-.868.165c1.121-2.1 2.416-2.694 4.042-4.418 7.753-5.721 15.451-17.084 22.638-22.915 6.907-5.604 15.25-16.002 21.498-20.462z" fill="#fb7a2e"/><path d="m699.479 751.706c1.304-1.454 1.951-.805 3.76-.436 1.676 2.856 5.275 7.018 6.112 8.663 3.036 1.186 5.186.388 8.004.819l-1.463.354c-1.076 2.614-.744 3.676-1.507 6.033-1.857 4.071-2.26 5.557-3.602 9.715-.836 5.59-.214 9.148-.776 13.603l.556.43c1.726 1.319 7.119 4.528 7.75 5.13 4.128 3.935 16.245 14.701 18.213 19.037.554 2.027.604 2.229.745 4.313 5.138.467 6.813 4.262 8.572 8.598.842 1.376 4.873 5.919 6.275 7.703-7.387-3.677-10.14-7.097-16.541-12.01-1.013-.778-1.262-.513-2.245-.301.665 1.841 1.316 4.125 1.916 6.026-5.615-3.526-8.51-6.861-13.318-11.312-3.349-3.1-6.845-5.752-10.187-9.018-2.024-1.55-7.171-5.899-8.831-7.584-10.958-7.593-13.324-12.817-9.405-25.88 2.309-7.699 4.375-16.012 5.972-23.883z" fill="#020202"/><path d="m699.479 751.706c1.304-1.454 1.951-.805 3.76-.436 1.676 2.856 5.275 7.018 6.112 8.663 3.036 1.186 5.186.388 8.004.819l-1.463.354c-1.076 2.614-.744 3.676-1.507 6.033-1.857 4.071-2.26 5.557-3.602 9.715-1.433-1.262-.623-.84-2.561-1.23-.822 2.76-1.385 3.066-3.648 4.923-.17 1.472-.26 1.018.056 2.384-.784 1.931-1.679 4.771-2.96 6.248-1.499 1.99-1.104.926-1.437 3.232.744 2.037 1.044 2.355 2.315 4.17.718 2.021 1.474 2.967.364 4.888-10.958-7.593-13.324-12.817-9.405-25.88 2.309-7.699 4.375-16.012 5.972-23.883z" fill="#fb8337"/><path d="m709.351 759.933c3.036 1.186 5.186.388 8.004.819l-1.463.354c-1.076 2.614-.744 3.676-1.507 6.033l-2.26-2.237c-.751.249-2.505.393-3.374.497.49-2.45.645-3.015.6-5.466z" fill="#fd9448"/><path d="m712.125 764.902 2.26 2.237c-1.857 4.071-2.26 5.557-3.602 9.715-1.433-1.262-.623-.84-2.561-1.23.897-3.708 2.206-7.305 3.903-10.722z" fill="#38130a"/><path d="m708.751 765.399-1.937 6.029c-1.184-2.181.211-9.855 2.537-11.495.045 2.451-.11 3.016-.6 5.466z" fill="#ebeae8"/><path d="m732.406 816.589 2.771 3.373c1.16-.064 1.091-.022 2.094-.595 5.138.467 6.813 4.262 8.572 8.598.842 1.376 4.873 5.919 6.275 7.703-7.387-3.677-10.14-7.097-16.541-12.01-1.013-.778-1.262-.513-2.245-.301-.524-.796-.755-1.727-1.076-2.656.544-2.07.5-1.972.15-4.112z" fill="#fb8337"/><path d="m737.271 819.367c5.138.467 6.813 4.262 8.572 8.598-3.212-.89-7.977-5.585-10.666-8.003 1.16-.064 1.091-.022 2.094-.595z" fill="#f4c8ab"/><path d="m723.099 807.63c2.162 1.777 4.59 4.583 6.674 5.526 1.167-.37.792-.191 1.84-.963.257 1.027.395 2.335.892 3.203l-.099 1.193c.35 2.14.394 2.042-.15 4.112-2.055-3.504-6.73-6.806-9.857-11.985z" fill="#fb7a2e"/><path d="m702.548 796.581c5.348 3.845 8.078 5.589 9.195 12.472-2.024-1.55-7.171-5.899-8.831-7.584 1.11-1.921.354-2.867-.364-4.888z" fill="#d8682b"/><path d="m704.63 782.931c.324 3.488-.313 6.91 2.643 9.677 2.619 2.45 5.195 4.138 7.648 6.839-5.533-2.723-8.937-5.784-13.251-10.268 1.281-1.477 2.176-4.317 2.96-6.248z" fill="#e4a777"/><path d="m736.526 815.054c.554 2.027.604 2.229.745 4.313-1.003.573-.934.531-2.094.595l-2.771-3.373.099-1.193c1.242.574 1.953 1.091 3.273.843z" fill="#f4c8ab"/><path d="m722.399 808.716c-2.374-1.279-4.162-2.844-5.357-5.283 1.882.688 3.918 2.96 6.057 4.197z" fill="#644130"/><path d="m223.234 628.265c9.694-5.565 42.443-6.66 53.842-4.653 6.67 8.699 13.193 14.565 21.928 21.253 4.297 3.289 6.698 9.575 11.996 9.809-5.091 1.051-2.562 2.879-5.636 6.83-1.331 1.069-2.584 1.854-4.275 1.983-2.761-.91-2.746-2.537-5.088-3.308-1.588.768-3.984 2.02-5.58 2.565l1.679-2.05c-.22-1.339-.63-1.201-2.104-2.321l-.811-.278c-3.138-3.819-3.72-4.441-7.433-7.56l-4.88-4.124c-2.552-2.168-6.245-7.792-7.303-8.356-3.518-1.877-13.385.266-17.945-.066-4.445-.324-12.704-1.965-16.399-1.365-4.473.575-9.282-.593-13.647-1.553z" fill="#fb7a2e"/><path d="m276.872 646.411-.346-2.773.521-.65c1.952.753 2.974 2.407 4.86 3.564 1.052-.563 2.008-1.306 2.989-2.002l.316-.028c1.185 1.983 16.534 15.39 18.483 15.212l1.669 1.77c-1.331 1.069-2.584 1.854-4.275 1.983-2.761-.91-2.746-2.537-5.088-3.308-1.588.768-3.984 2.02-5.58 2.565l1.679-2.05c-.22-1.339-.63-1.201-2.104-2.321l-.811-.278c-3.138-3.819-3.72-4.441-7.433-7.56z" fill="#d8682b"/><path d="m276.872 646.411-.346-2.773.521-.65c1.952.753 2.974 2.407 4.86 3.564l.776.987c2.316 1.853 7.683 5.169 8.67 7.957.218.617-1.593 2.107-2.168 2.599-3.138-3.819-3.72-4.441-7.433-7.56z" fill="#f4c8ab"/><path d="m289.996 658.373c1.851-1.003 1.924-1.433 3.716-1.39 1.309 1.171 1.473 1.679 2.289 3.196-1.588.768-3.984 2.02-5.58 2.565l1.679-2.05c-.22-1.339-.63-1.201-2.104-2.321z" fill="#f4c8ab"/><path d="m223.234 628.265c3.514.317 10.223.983 12.65 3.736-1.481 2.263-6.867 1.11-9.319 1.059 2.988 1.095 6.549 1.733 8.66 3.564-4.473.575-9.282-.593-13.647-1.553z" fill="#ebeae8"/><path d="m285.61 643.86c5.448-.919 15.291 11.646 18.085 15.874-1.949.178-17.298-13.229-18.483-15.212z" fill="#111011"/><path d="m284.896 644.55c-5.322-2.2-6.914-5.909-11.039-9.578-.531-.472-3.592-1.292-4.668-1.722.65-.487.866-.864 1.616-.756 3.979.571 12.346 8.607 14.805 11.366l-.398.662z" fill="#f4c8ab"/><path d="m243.763 633.276c3.774-.2 12.426-.965 15.486.469-3.02.6-12.619.823-15.486-.469z" fill="#fd9448"/><path d="m311.49 763.069c.742 7.15.83 21.481.762 29.222-1.65 1.513-3.433 3.088-4.998 4.67l-.426-2.607c.356-.323 1.898-1.63 2.024-1.737 2.803-2.354 2.053-26.575.799-27.783-2.745.161-4.737.912-8.353 1.031-7.126.234-15.282-1.469-21.928.749-1.796.599-7.592 6.329-9.315 8.098-8.28 8.501-17.07 16.567-26.811 23.396-.439.308-2.752.487-3.287.484-2.646-.016-3.05.213-4.886-1.433-.642-1.753-.324-2.407.03-4.365l.131-.697-.373-.501c-3.448 1.353-8.725 7.468-11.388 5.918-1.093-3.073 1.003-5.674 3.407-7.342.919-.637 2.191.099 3.135.427-1.626 1.724-2.921 2.318-4.042 4.418l.868-.165-.649.083.472-.633.887.143c6.113-4.331 11.479-9.286 17.059-14.274-2.408 3.622-9.361 12.744-7.046 16.801l1.296.318c9.392-2.076 31.364-26.22 39.456-33.725 5.419-.602 12.233-.005 17.803-.068 5.169-.058 10.211-.287 15.373-.428z" fill="#ebeae8" fill-opacity=".011765"/><path d="m539.381 856.595c.486-7.5 1.31-12.31 7.356-17.221-1.482 7.324-3.347 15.538-4.176 22.957-.195 1.741 1.823 5.935 1.609 8.102-.617 6.248-3.139 9.221-.733 15.689.099 2.638.219 3.12-.451 5.602l-.694.254c-.701-1.048-.715-1.406-1.084-2.63-.477 3.97.582 14.786-.568 17.272-2.232-4.887-2.327-42.642-1.074-47.933z" fill="#fb8337"/><path d="m541.208 889.348c-.649-.933-.369-.547-.49-1.933 1.028-1.159.946-.829 2.719-1.293.099 2.638.219 3.12-.451 5.602l-.694.254c-.701-1.048-.715-1.406-1.084-2.63z" fill="#fd9448"/><path d="m756.872 685.317c3.439.886 7.006 1.174 10.544.85 5.712-.487 23.28-5.584 27.488-1.517-1.816 2.003-11.975 3.292-15.391 4.044l-.118.307c-2.877 2.917-13.069 1.686-17.522 2.237-1.022.433-.641.439-1.637.362-2.871-2.712-6.333-2.607-10.674-7.402 2.369.417 4.929.945 7.31 1.119z" fill="#fb8337"/><path d="m761.873 691.238c-.377-.249-.184-.063-.43-.68 2.347-1.465 14.943-2.2 18.07-1.864l-.118.307c-2.877 2.917-13.069 1.686-17.522 2.237z" fill="#f4c8ab"/><path d="m479.295 344.722c5.99.633 25.755 15.069 30.688 19.47-2.116.201-3.85.565-5.818-.309-2.664 1.335-4.813 2.568-7.262.268l.926-.603-.229-1.017c3.184-.159 7.449.237 10.719.448-2.81-1.297-6.231-1.892-9.282-2.574-3.858-4.609-14.442-11.591-19.742-15.683z" fill="#ebeae8" fill-opacity=".011765"/><path d="m491.034 859.342 1.742.577c.296 3.08-.704 30.125-1.552 31.974l-.348-.457-.681-.074c-1.435-2.195.49-27.574.839-32.02z" fill="#626063" fill-opacity=".980392"/><path d="m469.52 340.635c2.825.554 5.216 1.849 7.845 3.064l.482.922 1.448.101c5.3 4.092 15.884 11.074 19.742 15.683-2.062-1.085-3.986-2.69-6.063-3.886-5.323-3.066-11.779-2.136-17.772-1.968l-.057-1.007c3.187-.347 9.479-.105 13.468-.346-3.883-3.433-14.329-9.304-19.192-12.084z" fill="#111011" fill-opacity=".972549"/><path d="m631.535 166.818c3.726 7.298 1.319 17.976.945 25.88-.205 4.339-.353 10.038-.935 14.2l-.265.811c-.766-12.339.184-28.131.255-40.891z" fill="#020202"/><path d="m773.281 779.394c7.648 7.698 16.678 12.349 24.024 20.617-8.756-5.176-18.146-14.835-24.677-17.864-.518-.955-.368-1.059-.505-2.249z" fill="#fd9448" fill-opacity=".964706"/><path d="m446.19 327.233c3.597 1.565 6.093 2.608 9.93 3.539 2.995.43 2.721.213 4.253 2.819 1.078-.259.571-.01 1.368-1.098l.072.304-.174.217c.284 2.353.536 4.467.979 6.807l-.271-.034-.405-.423c-.867 1.147-.4.979-1.446 1.331l-.516-.805.734-.209c1.946-6.161-9.272-10.337-12.545-9.211-1.446-.793-1.188-1.242-1.979-3.237z" fill="#020202" fill-opacity=".988235"/><path d="m499.037 360.405c3.051.682 6.472 1.277 9.282 2.574-3.27-.211-7.535-.607-10.719-.448-5.244-.037-11.439-.188-16.6.348l.008-.886c3.845-1.717 13.929.068 18.029-1.588z" fill="#020202" fill-opacity=".976471"/><path d="m432.119 317.52c5.656 3.072 19.127 10.055 24.001 13.252-3.837-.931-6.333-1.974-9.93-3.539-1.743-1.301-4.48-2.935-6.673-3.09l-1.174-.777c-2.045-1.979-4.12-3.928-6.224-5.846z" fill="#ebeae8" fill-opacity=".043137"/><path d="m538.117 374.489c-3.704.266-22.234.939-24.498.159l.617-.483c4.27-.532 20.542-1.368 24.189-.107z" fill="#2f2d2f" fill-opacity=".929412"/><path d="m481.766 367.157 24.715.036c-7.102 1.74-17.574 1.52-25.029 1.425z" fill="#111011" fill-opacity=".984314"/><path d="m600.527 870.638c.386.68.844 1.58 1.31 2.176-.271 3.345-.69 11.412-1.913 14.108l-.151.081c-.979-4.013-.787-5.382-.405-9.397.414-2.318.8-4.641 1.159-6.968z" fill="#fd9448"/><path d="m522.972 360.451c4.461-.243 17.045-.782 21.094.393l.009.625c-7.178.128-14.357.131-21.536.007z" fill="#020202" fill-opacity=".988235"/><path d="m534.839 382.458c-2.006-.923-17.497.6-21.936.317 3.228-1.791 18.281-1.789 22.615-1.716-.205.481-.376 1.021-.679 1.399z" fill="#111011" fill-opacity=".980392"/><path d="m534.116 402.19.093.792c-3.322.353-17.698 1.097-20.234.026l-.033.289-.5-.161c3.562-1.454 16.272-1.007 20.674-.946z" fill="#4c4a4d"/><path d="m541.288 367.564c-3.577.741-18.575.805-22.261-.018l-.088-.305c8.51-.505 14.289-.585 22.698-.122z" fill="#020202" fill-opacity=".976471"/><path d="m511.214 396.482c6.225-.722 14.539-.75 20.718.252l.805.924c-5.976-.09-15.967-.016-21.523-1.176z" fill="#4c4a4d" fill-opacity=".984314"/><path d="m484.623 373.987c4.337-.286 14.613-1.118 18.417.034l.365.365c-3.334.734-14.27.597-18.353.623z" fill="#2f2d2f" fill-opacity=".933333"/><path d="m614.47 151.492.019-.741-.334-.599.852-.056c2.221 2.137 6.384 6.197 9.425 6.995.105.952.09.916.047 1.857-1.648-1.314-8.119-4.902-10.471-6.456z" fill="#020202" fill-opacity=".976471"/><path d="m531.773 389.81c-4.636.408-13.985.266-18.638-.165 2.422-1.076 13.028-.874 16.297-.864l2.276.584z" fill="#020202" fill-opacity=".968627"/><path d="m531.389 411.473c-3.03.522-15.655.892-18.173.107l.29.232-.515-.083.7-.001.252-.356c4.677-.563 10.023-.702 14.729-.803z" fill="#020202" fill-opacity=".941176"/><path d="m626.221 231.178c2.205-8.359-1.129-12.967 2.408-18.96.128 2.166-.685 15.459-1.054 17.47z" fill="#4c4a4d" fill-opacity=".803922"/><path d="m552.697 114.977c2.83 1.58 8.207 4.638 11.369 4.852l.425.763c-1.29.705-1.654.301-2.859-.541-1.164.384-.83.236-1.94.914l-.346-.416.497-.973c-1.248-1.113-6.915-2.648-8.733-2.963z" fill="#020202" fill-opacity=".972549"/><path d="m488.157 381.453c4.921-.53 7.396-.396 12.367.113l-4.31.872c-2.513.045-5.027.059-7.541.043z" fill="#2f2d2f" fill-opacity=".976471"/><path d="m492.838 388.963c2.662-.679 5.538-.928 8.171-.051l.449.705c-1.616.966-6.651.384-8.397.007l.11-.196z" fill="#111011" fill-opacity=".952941"/><path d="m491.539 402.219c4.161-.138 6.647-.252 10.737.222-3.801.84-7.057.633-10.886.441z" fill="#2f2d2f" fill-opacity=".937255"/><path d="m495.292 396.058c2.407-.023 3.593-.113 5.966.351l.192.488c-2.693.82-4.574.652-7.353.628z" fill="#4c4a4d" fill-opacity=".92549"/><path d="m486.666 878.836c.695 2.141.294 4.157.065 6.393-.982-2.812-1.01-3.597-.065-6.393z" fill="#020202" fill-opacity=".32549"/><path d="m610.348 149.2c1.477 1.032 2.374 1.828 4.122 2.292l-.462 1-4.469-2.452z" fill="#2f2d2f" fill-opacity=".866667"/><path d="m479.503 907.074 1.453.265c-.343 1.655-.343 1.673-1.083 3.19-.67-.694-.371-2.136-.37-3.455z" fill="#020202"/><path d="m500.524 381.566 1.585.343-.075.435c-2.272.164-3.547.203-5.82.094z" fill="#626063" fill-opacity=".92549"/></svg>